<svg width="36" height="36" viewBox="0 0 36 36" fill="none" xmlns="http://www.w3.org/2000/svg">
<path d="M27.375 8.25H23.25V7.125C23.25 7.02554 23.2105 6.93016 23.1402 6.85983C23.0698 6.78951 22.9745 6.75 22.875 6.75C22.7755 6.75 22.6802 6.78951 22.6098 6.85983C22.5395 6.93016 22.5 7.02554 22.5 7.125V8.25H13.5V7.125C13.5 7.02554 13.4605 6.93016 13.3902 6.85983C13.3198 6.78951 13.2245 6.75 13.125 6.75C13.0255 6.75 12.9302 6.78951 12.8598 6.85983C12.7895 6.93016 12.75 7.02554 12.75 7.125V8.25H8.625C8.12772 8.25 7.65081 8.44754 7.29917 8.79917C6.94754 9.15081 6.75 9.62772 6.75 10.125V27.375C6.75 27.8723 6.94754 28.3492 7.29917 28.7008C7.65081 29.0525 8.12772 29.25 8.625 29.25H27.375C27.8723 29.25 28.3492 29.0525 28.7008 28.7008C29.0525 28.3492 29.25 27.8723 29.25 27.375V10.125C29.25 9.62772 29.0525 9.15081 28.7008 8.79917C28.3492 8.44754 27.8723 8.25 27.375 8.25ZM7.5 10.125C7.5 9.82663 7.61853 9.54048 7.8295 9.3295C8.04048 9.11853 8.32663 9 8.625 9H12.75V10.125C12.75 10.2245 12.7895 10.3198 12.8598 10.3902C12.9302 10.4605 13.0255 10.5 13.125 10.5C13.2245 10.5 13.3198 10.4605 13.3902 10.3902C13.4605 10.3198 13.5 10.2245 13.5 10.125V9H22.5V10.125C22.5 10.2245 22.5395 10.3198 22.6098 10.3902C22.6802 10.4605 22.7755 10.5 22.875 10.5C22.9745 10.5 23.0698 10.4605 23.1402 10.3902C23.2105 10.3198 23.25 10.2245 23.25 10.125V9H27.375C27.6734 9 27.9595 9.11853 28.1705 9.3295C28.3815 9.54048 28.5 9.82663 28.5 10.125V13.425H7.5V10.125ZM28.5 27.375C28.5 27.6734 28.3815 27.9595 28.1705 28.1705C27.9595 28.3815 27.6734 28.5 27.375 28.5H8.625C8.32663 28.5 8.04048 28.3815 7.8295 28.1705C7.61853 27.9595 7.5 27.6734 7.5 27.375V14.175H28.5V27.375Z" fill="#060A0D"/>
<path d="M10.125 26.25H13.875C13.9745 26.25 14.0698 26.2105 14.1402 26.1402C14.2105 26.0698 14.25 25.9745 14.25 25.875V22.125C14.25 22.0255 14.2105 21.9302 14.1402 21.8598C14.0698 21.7895 13.9745 21.75 13.875 21.75H10.125C10.0255 21.75 9.93016 21.7895 9.85984 21.8598C9.78951 21.9302 9.75 22.0255 9.75 22.125V25.875C9.75 25.9745 9.78951 26.0698 9.85984 26.1402C9.93016 26.2105 10.0255 26.25 10.125 26.25ZM10.5 22.5H13.5V25.5H10.5V22.5Z" fill="#060A0D"/>
<path d="M16.125 20.25H19.875C19.9745 20.25 20.0698 20.2105 20.1402 20.1402C20.2105 20.0698 20.25 19.9745 20.25 19.875V16.125C20.25 16.0255 20.2105 15.9302 20.1402 15.8598C20.0698 15.7895 19.9745 15.75 19.875 15.75H16.125C16.0255 15.75 15.9302 15.7895 15.8598 15.8598C15.7895 15.9302 15.75 16.0255 15.75 16.125V19.875C15.75 19.9745 15.7895 20.0698 15.8598 20.1402C15.9302 20.2105 16.0255 20.25 16.125 20.25ZM16.5 16.5H19.5V19.5H16.5V16.5Z" fill="#060A0D"/>
<path d="M16.125 26.25H19.875C19.9745 26.25 20.0698 26.2105 20.1402 26.1402C20.2105 26.0698 20.25 25.9745 20.25 25.875V22.125C20.25 22.0255 20.2105 21.9302 20.1402 21.8598C20.0698 21.7895 19.9745 21.75 19.875 21.75H16.125C16.0255 21.75 15.9302 21.7895 15.8598 21.8598C15.7895 21.9302 15.75 22.0255 15.75 22.125V25.875C15.75 25.9745 15.7895 26.0698 15.8598 26.1402C15.9302 26.2105 16.0255 26.25 16.125 26.25ZM16.5 22.5H19.5V25.5H16.5V22.5Z" fill="#060A0D"/>
<path d="M22.125 20.25H25.875C25.9745 20.25 26.0698 20.2105 26.1402 20.1402C26.2105 20.0698 26.25 19.9745 26.25 19.875V16.125C26.25 16.0255 26.2105 15.9302 26.1402 15.8598C26.0698 15.7895 25.9745 15.75 25.875 15.75H22.125C22.0255 15.75 21.9302 15.7895 21.8598 15.8598C21.7895 15.9302 21.75 16.0255 21.75 16.125V19.875C21.75 19.9745 21.7895 20.0698 21.8598 20.1402C21.9302 20.2105 22.0255 20.25 22.125 20.25ZM22.5 16.5H25.5V19.5H22.5V16.5Z" fill="#060A0D"/>
<path d="M22.125 26.25H25.875C25.9745 26.25 26.0698 26.2105 26.1402 26.1402C26.2105 26.0698 26.25 25.9745 26.25 25.875V22.125C26.25 22.0255 26.2105 21.9302 26.1402 21.8598C26.0698 21.7895 25.9745 21.75 25.875 21.75H22.125C22.0255 21.75 21.9302 21.7895 21.8598 21.8598C21.7895 21.9302 21.75 22.0255 21.75 22.125V25.875C21.75 25.9745 21.7895 26.0698 21.8598 26.1402C21.9302 26.2105 22.0255 26.25 22.125 26.25ZM22.5 22.5H25.5V25.5H22.5V22.5Z" fill="#060A0D"/>
</svg>
