<svg width="48" height="48" viewBox="0 0 48 48" fill="none" xmlns="http://www.w3.org/2000/svg">
<path d="M41.6923 26.7184C41.8622 26.7184 42 26.5806 42 26.4107V19.9044C42 19.7345 41.8622 19.5967 41.6923 19.5967H37.5503C37.5448 19.5826 37.5392 19.5684 37.5315 19.5549L35.4164 15.8918C35.3314 15.7446 35.1434 15.6941 34.9961 15.7791C34.0183 16.343 32.7631 16.0077 32.1983 15.0311C31.9247 14.5582 31.852 14.0069 31.9935 13.4786C32.135 12.9498 32.474 12.508 32.9481 12.2345C33.0188 12.1937 33.0704 12.1265 33.0916 12.0476C33.1127 11.9688 33.1016 11.8847 33.0608 11.814L30.9441 8.1537C30.8593 8.00678 30.6713 7.95632 30.524 8.04124L14.0657 17.5373L10.6059 19.5314C10.5761 19.5485 10.5507 19.5713 10.5285 19.5967H6.3077C6.13777 19.5967 6 19.7345 6 19.9044V26.4107C6 26.5806 6.13777 26.7184 6.3077 26.7184C8.13627 26.7184 9.62398 28.2055 9.62398 30.0336C9.62398 31.8616 8.13634 33.3488 6.3077 33.3488C6.13777 33.3488 6 33.4866 6 33.6565V40.1629C6 40.3328 6.13777 40.4706 6.3077 40.4706H41.6923C41.8622 40.4706 42 40.3328 42 40.1629V33.6565C42 33.4866 41.8622 33.3488 41.6923 33.3488C39.8637 33.3488 38.376 31.8616 38.376 30.0336C38.376 28.2055 39.8637 26.7184 41.6923 26.7184ZM14.3733 18.0704L30.5654 8.72787L32.3826 11.8705C31.9011 12.227 31.5564 12.7319 31.399 13.3194C31.215 14.0066 31.3097 14.7239 31.6656 15.3392C32.348 16.5191 33.8053 16.9794 35.0285 16.4504L36.8448 19.5962L11.725 19.5967L14.3733 18.0704ZM37.7606 30.0336C37.7606 32.0974 39.3598 33.7949 41.3846 33.9521V39.855H6.6154V33.9521C8.64012 33.7949 10.2394 32.0974 10.2394 30.0336C10.2394 27.9697 8.64012 26.2721 6.6154 26.1148V20.2121H10.8215H36.9266H41.3846V26.1148C39.3598 26.2721 37.7606 27.9697 37.7606 30.0336Z" fill="white" stroke="white" stroke-width="0.25"/>
</svg>
