<svg width="34" height="25" viewBox="0 0 34 25" fill="none" xmlns="http://www.w3.org/2000/svg">
<path d="M30.8126 25H3.18743C2.34207 25 1.53134 24.6708 0.933578 24.0847C0.335818 23.4987 0 22.7039 0 21.8751L0 3.12493C0 2.29615 0.335818 1.50131 0.933578 0.915269C1.53134 0.329232 2.34207 0 3.18743 0H30.8126C31.6579 0 32.4687 0.329232 33.0664 0.915269C33.6642 1.50131 34 2.29615 34 3.12493V21.8748C34 22.2852 33.9176 22.6916 33.7575 23.0707C33.5973 23.4499 33.3625 23.7944 33.0665 24.0846C32.7705 24.3748 32.4191 24.605 32.0324 24.7621C31.6457 24.9192 31.2312 25 30.8126 25ZM7.43606 3.64585C6.70061 3.64613 5.98178 3.8602 5.37042 4.26099C4.75907 4.66178 4.28266 5.23128 4.00142 5.8975C3.72018 6.56372 3.64675 7.29673 3.79041 8.00386C3.93407 8.71098 4.28836 9.36047 4.8085 9.87021C5.32864 10.3799 5.99127 10.727 6.7126 10.8676C7.43393 11.0081 8.18157 10.9359 8.861 10.6599C9.54043 10.3839 10.1211 9.91659 10.5297 9.31706C10.9383 8.71754 11.1563 8.01271 11.1563 7.29169C11.1563 6.32475 10.7645 5.39742 10.0671 4.71369C9.36971 4.02996 8.42383 3.64585 7.43755 3.64585H7.43606ZM4.24862 20.8344H29.7502V13.5415L23.9386 7.84418C23.7891 7.69766 23.5864 7.61535 23.375 7.61535C23.1637 7.61535 22.9609 7.69766 22.8115 7.84418L13.8124 16.6668L10.1258 13.0525C9.97638 12.906 9.77367 12.8237 9.5623 12.8237C9.35094 12.8237 9.14823 12.906 8.99876 13.0525L4.25011 17.7083L4.24862 20.8344Z" fill="black" fill-opacity="0.64"/>
</svg>
