<svg width="48" height="48" viewBox="0 0 48 48" fill="none" xmlns="http://www.w3.org/2000/svg">
<g id="Frame 25">
<g id="Group 51">
<path id="Vector" d="M35.8972 29.9437L29.0147 28.3847C28.6359 28.2993 28.3715 27.9677 28.3715 27.5793V25.3298C31.1443 23.5113 33.0052 20.1903 33.0052 16.4013C33.0052 10.666 28.7432 6 23.5047 6C18.2662 6 14.0042 10.666 14.0042 16.4013C14.0042 20.1448 15.8206 23.4317 18.5384 25.2639V27.5823C18.5384 27.9698 18.2748 28.3005 17.8973 28.3873L11.1163 29.9429C7.8205 30.6551 6.68637 33.6313 6.30356 35.342C6.11472 36.1866 6.00406 38.0896 6 40.5616C5.99979 40.6779 6.04572 40.7894 6.12796 40.8714C6.20999 40.9539 6.32129 41 6.4375 41H40.5713C40.6875 41 40.7988 40.9539 40.8808 40.8718C40.9628 40.7894 41.009 40.6779 41.0088 40.5621C41.0053 38.0905 40.8949 36.1879 40.7058 35.3416C40.323 33.6313 39.1889 30.6551 35.8972 29.9437ZM14.8792 16.4013C14.8792 11.1483 18.7486 6.875 23.5047 6.875C28.2608 6.875 32.1302 11.1483 32.1302 16.4013C32.1302 21.6543 28.2608 25.9276 23.5047 25.9276C18.7486 25.9276 14.8792 21.6543 14.8792 16.4013ZM23.5047 26.8026C24.93 26.8026 26.2819 26.4549 27.4965 25.8365V27.5793C27.4965 28.208 27.8356 28.7595 28.3579 29.0546C27.1917 30.5491 25.4149 31.4361 23.5021 31.4361C21.5715 31.4361 19.786 30.5368 18.6206 29.0215C19.1049 28.7178 19.4134 28.1832 19.4134 27.5823V25.7872C20.6532 26.4376 22.0407 26.8026 23.5047 26.8026ZM6.87692 40.125C6.8923 37.9572 6.99527 36.2584 7.15762 35.533C7.49451 34.0261 8.48123 31.4075 11.3066 30.7969L17.7443 29.3201C19.0659 31.1964 21.1971 32.3111 23.5021 32.3111C25.7964 32.3111 27.9268 31.2015 29.2493 29.3352L35.7081 30.7982C38.5282 31.4075 39.5149 34.0261 39.8518 35.5325C40.0143 36.2593 40.1171 37.958 40.132 40.125H6.87692Z" fill="white"/>
<path id="Vector_2" d="M26.7739 21.7502C26.9352 21.5704 26.92 21.2939 26.7402 21.1324C26.5601 20.9714 26.2837 20.9867 26.1224 21.1666C25.4347 21.9339 24.5055 22.3565 23.5059 22.3565C22.5064 22.3565 21.5771 21.9339 20.8892 21.1666C20.7282 20.9867 20.4513 20.9714 20.2714 21.1324C20.0916 21.2939 20.0764 21.5704 20.2377 21.7502C21.0813 22.6915 22.2725 23.2315 23.5059 23.2315C24.7394 23.2315 25.9305 22.6915 26.7739 21.7502Z" fill="#23D2B3"/>
</g>
</g>
</svg>
