<svg width="48" height="48" viewBox="0 0 48 48" fill="none" xmlns="http://www.w3.org/2000/svg">
<g id="Frame 17">
<g id="Group">
<path id="Vector" d="M42.9479 25.6306L31.2491 13.9318C31.1953 13.878 31.1415 13.8472 31.0722 13.8242L28.3725 12.9089L27.4572 10.2092C27.4342 10.1399 27.3957 10.0784 27.3496 10.0323L23.45 6.13268C23.2731 5.95577 22.9808 5.95577 22.7962 6.13268L19.4504 9.47847C19.2966 9.6323 19.2735 9.87843 19.3889 10.063C19.8119 10.6937 19.9965 11.4552 19.9196 12.209L17.7275 10.0169C17.5506 9.83997 17.2583 9.83997 17.0737 10.0169L13.7279 13.3627C13.5741 13.5165 13.551 13.7626 13.6664 13.9472C14.5202 15.224 14.3586 16.9008 13.2972 17.9314C12.205 18.9928 10.5283 19.1544 9.31303 18.316C9.12843 18.1929 8.8823 18.216 8.72847 18.3698L5.38268 21.7156C5.20577 21.8925 5.20577 22.1848 5.38268 22.3694L9.28226 26.269C9.3361 26.3228 9.38994 26.3536 9.45917 26.3767L12.1589 27.292L13.0742 29.9917C13.0972 30.0609 13.1357 30.1224 13.1818 30.1686L24.8806 41.8673C25.0575 42.0442 25.3498 42.0442 25.5344 41.8673L28.6033 38.7984C28.7725 38.6292 28.7879 38.36 28.634 38.1754C27.5342 36.8294 27.7264 34.845 29.0725 33.7451C30.2339 32.7914 31.9029 32.7914 33.0643 33.7451C33.2489 33.8989 33.5181 33.8836 33.6873 33.7143L37.2331 30.1686C37.41 29.9917 37.41 29.6994 37.2331 29.5148L36.8562 29.1379C37.5639 29.1533 38.2484 29.4071 38.7868 29.8609C38.9714 30.0147 39.2406 29.9994 39.4098 29.8301L42.9556 26.2844C43.1325 26.1075 43.1325 25.8152 42.9479 25.6306ZM23.1269 7.1095L26.6266 10.6091L27.4957 13.1781L23.573 17.1007L22.6578 16.7931L21.7425 14.0934C21.7194 14.0241 21.6809 13.9626 21.6348 13.9165L20.7041 12.9858C21.0041 11.9474 20.881 10.8245 20.358 9.87843L23.1269 7.1095ZM9.85143 25.5383L6.35181 22.0387L9.11305 19.2774C10.6513 20.1235 12.6204 19.862 13.9356 18.5929C15.2278 17.3392 15.497 15.3625 14.6278 13.7626L17.3968 10.9937L20.8964 14.4933L21.7655 17.0623L12.4281 26.4074L9.85143 25.5383ZM33.3105 32.776C31.4337 31.5377 28.9032 32.053 27.6649 33.9297C26.765 35.2911 26.765 37.0601 27.6649 38.4215L25.2036 40.8828L13.9048 29.5917L13.0588 27.0766L22.4424 17.693L24.9575 18.539L36.2563 29.8378L33.3105 32.776ZM39.0329 28.8918C38.1407 28.2995 37.0485 28.0765 36.0025 28.2842L25.5267 17.816C25.4728 17.7622 25.419 17.7314 25.3498 17.7084L24.5422 17.4392L28.1572 13.8242L30.6723 14.6702L41.9711 25.969L39.0329 28.8918Z" fill="white"/>
<path id="Vector_2" d="M23.0269 26.1076L20.9348 25.4077C20.6964 25.3308 20.4349 25.4615 20.3503 25.7C20.3195 25.7923 20.3195 25.8999 20.3503 25.9922L21.0502 28.0843L19.7811 29.838C19.635 30.0456 19.6734 30.3302 19.8811 30.4841C19.958 30.5379 20.058 30.5687 20.1503 30.5687H20.158L22.3347 30.5456L23.5807 32.3146C23.7268 32.5223 24.0114 32.5761 24.2268 32.43C24.3114 32.3685 24.3729 32.2839 24.4037 32.1916L25.0498 30.1072L27.1342 29.4611C27.3803 29.3842 27.5111 29.1304 27.4418 28.8842C27.4111 28.7842 27.3495 28.6996 27.2649 28.6458L25.4959 27.3998L25.519 25.2231C25.519 24.9693 25.319 24.7616 25.0652 24.7539C24.9652 24.7539 24.8729 24.7847 24.7883 24.8385L23.0269 26.1076ZM25.9574 28.8535L24.5421 29.2919C24.396 29.338 24.2806 29.4534 24.2345 29.5995L23.7961 31.0148L22.95 29.8149C22.8654 29.6918 22.7193 29.6226 22.5731 29.6226H22.5654L21.0656 29.638L21.9347 28.4381C22.0193 28.3151 22.0424 28.1612 21.9963 28.0228L21.5194 26.5845L22.9577 27.0614C23.0961 27.1075 23.2577 27.0844 23.373 26.9998L24.5729 26.1307L24.5575 27.6305C24.5575 27.7844 24.6267 27.9228 24.7498 28.0151L25.9574 28.8535Z" fill="#23D2B3"/>
</g>
</g>
</svg>
