<svg width="104" height="95" viewBox="0 0 104 95" fill="none" xmlns="http://www.w3.org/2000/svg">
<g opacity="0.2" clip-path="url(#clip0_245_3154)">
<path d="M9.80064 24.6444L8.52174 24.6345L8.99566 24.1606L9.3198 24.1635L9.80064 24.6444Z" fill="white"/>
<path d="M10.8387 25.6825L7.50143 25.6548L7.97535 25.1809L10.3569 25.2006L10.8387 25.6825Z" fill="white"/>
<path d="M11.8748 26.7186L6.4821 26.6742L6.95504 26.2012L11.394 26.2377L11.8748 26.7186Z" fill="white"/>
<path d="M12.9119 27.7557L5.46179 27.6945L5.93375 27.2225L12.4301 27.2739L12.9119 27.7557Z" fill="white"/>
<path d="M13.949 28.7928L4.4405 28.7158L4.91442 28.2418L13.4682 28.3119L13.949 28.7928Z" fill="white"/>
<path d="M15.1144 29.9582L3.29485 29.8614L3.76682 29.3894L14.6336 29.4773L15.1144 29.9582Z" fill="white"/>
<path d="M16.2808 31.1245L2.14725 31.009L2.62117 30.5351L15.799 30.6427L16.2808 31.1245Z" fill="white"/>
<path d="M15.671 31.7984L15.1971 32.2723L3.01418 32.1726L2.53333 31.6918L15.671 31.7984Z" fill="white"/>
<path d="M14.482 32.9869L14.0091 33.4599L4.22147 33.3799L3.73964 32.8981L14.482 32.9869Z" fill="white"/>
<path d="M13.295 34.1759L12.8221 34.6488L5.43266 34.5896L4.95181 34.1087L13.295 34.1759Z" fill="white"/>
<path d="M12.1071 35.3634L11.6331 35.8373L6.63994 35.7969L6.15909 35.316L12.1071 35.3634Z" fill="white"/>
<path d="M10.9162 36.5534L10.4432 37.0263L7.84722 37.0056L7.36638 36.5247L10.9162 36.5534Z" fill="white"/>
<path d="M9.72722 37.7419L9.25427 38.2148L9.05549 38.2138L8.57464 37.733L9.72722 37.7419Z" fill="white"/>
</g>
<g opacity="0.2" clip-path="url(#clip1_245_3154)">
<path d="M1.99359 45C1.99359 45.55 1.54503 46 0.996794 46C0.448557 46 0 45.55 0 45C0 44.45 0.448557 44 0.996794 44C1.54503 44 1.99359 44.45 1.99359 45Z" fill="white"/>
<path d="M7.66351 45C7.66351 45.55 7.21495 46 6.66672 46C6.11848 46 5.66992 45.55 5.66992 45C5.66992 44.45 6.11848 44 6.66672 44C7.21495 44 7.66351 44.45 7.66351 45Z" fill="white"/>
<path d="M13.3295 45C13.3295 45.55 12.881 46 12.3327 46C11.7845 46 11.3359 45.55 11.3359 45C11.3359 44.45 11.7845 44 12.3327 44C12.881 44 13.3295 44.45 13.3295 45Z" fill="white"/>
<path d="M18.9994 45C18.9994 45.55 18.5509 46 18.0027 46C17.4544 46 17.0059 45.55 17.0059 45C17.0059 44.45 17.4544 44 18.0027 44C18.5509 44 18.9994 44.45 18.9994 45Z" fill="white"/>
</g>
<g opacity="0.2" clip-path="url(#clip2_245_3154)">
<path d="M101.674 86.0545C100.959 86.078 100.604 85.3659 100.267 84.6773C99.9641 84.0711 99.6792 83.4944 99.2023 83.512C98.7197 83.5238 98.4696 84.1182 98.2021 84.7421C97.9055 85.4483 97.5915 86.1722 96.8762 86.1957C96.1609 86.2193 95.8062 85.5071 95.4689 84.8244C95.1665 84.2183 94.8873 83.6415 94.4047 83.6533C93.922 83.6651 93.6719 84.2595 93.4044 84.8833C93.1078 85.5895 92.7938 86.3134 92.0785 86.337C91.3632 86.3605 91.0085 85.6484 90.6712 84.9598C90.3688 84.3536 90.0897 83.7769 89.607 83.7945C89.1243 83.8063 88.8742 84.4007 88.6067 85.0245C88.3102 85.7308 87.9961 86.4547 87.2808 86.4782C86.5655 86.5017 86.2108 85.7896 85.8735 85.1011C85.5711 84.4949 85.292 83.9181 84.8093 83.9358C84.3266 83.9475 84.0766 84.542 83.8091 85.1658C83.5125 85.872 83.1984 86.5959 82.4832 86.6194C81.7679 86.643 81.4131 85.9309 81.0758 85.2423C80.7734 84.6302 80.4943 84.0535 80.0116 84.0711L80 83.7004C80.7153 83.6768 81.07 84.3889 81.4073 85.0775C81.7097 85.6837 81.9889 86.2604 82.4715 86.2428C82.9542 86.231 83.2043 85.6366 83.4718 85.0128C83.7684 84.3065 84.0824 83.5827 84.7977 83.5591C85.513 83.5356 85.8677 84.2477 86.205 84.9363C86.5074 85.5424 86.7865 86.1192 87.2692 86.1015C87.7519 86.0898 88.0019 85.4954 88.2694 84.8715C88.566 84.1653 88.8801 83.4414 89.5953 83.4179C90.3106 83.3943 90.6654 84.1065 91.0027 84.795C91.3051 85.4012 91.5842 85.978 92.0669 85.9603C92.5496 85.9485 92.7996 85.3541 93.0671 84.7303C93.3637 84.0241 93.6777 83.3002 94.393 83.2766C95.1083 83.2531 95.463 83.9652 95.8003 84.6538C96.1027 85.26 96.3819 85.8367 96.8646 85.8191C97.3472 85.8073 97.5973 85.2129 97.8648 84.589C98.1614 83.8828 98.4754 83.1589 99.1907 83.1354C99.906 83.1118 100.261 83.824 100.598 84.5125C100.9 85.1187 101.18 85.6955 101.662 85.6778C102.145 85.666 102.395 85.0716 102.662 84.4478C102.965 83.7416 103.273 83.0177 103.988 82.9941L104 83.3649C103.517 83.3767 103.267 83.9711 103 84.5949C102.697 85.3012 102.389 86.025 101.674 86.0486V86.0545Z" fill="white"/>
<path d="M101.674 94.4407C100.959 94.4642 100.604 93.7521 100.267 93.0635C99.9641 92.4573 99.6792 91.8806 99.2023 91.8982C98.7197 91.91 98.4696 92.5044 98.2021 93.1283C97.9055 93.8345 97.5915 94.5584 96.8762 94.5819C96.1609 94.6055 95.8062 93.8933 95.4689 93.2048C95.1665 92.5986 94.8873 92.0218 94.4047 92.0395C93.922 92.0513 93.6719 92.6457 93.4044 93.2695C93.1078 93.9757 92.7938 94.6996 92.0785 94.7232C91.3632 94.7467 91.0085 94.0346 90.6712 93.346C90.3688 92.7398 90.0897 92.1631 89.607 92.1807C89.1243 92.1925 88.8742 92.7869 88.6067 93.4108C88.3102 94.117 87.9961 94.8409 87.2808 94.8644C86.5655 94.8879 86.2108 94.1758 85.8735 93.4873C85.5711 92.8811 85.292 92.3043 84.8093 92.322C84.3266 92.3338 84.0766 92.9282 83.8091 93.552C83.5125 94.2582 83.1984 94.9821 82.4832 95.0057C81.7679 95.0292 81.4131 94.3171 81.0758 93.6285C80.7734 93.0223 80.4943 92.4456 80.0116 92.4632L80 92.0925C80.7153 92.0689 81.07 92.781 81.4073 93.4696C81.7097 94.0758 81.9889 94.6525 82.4715 94.6349C82.9542 94.6231 83.2043 94.0287 83.4718 93.4049C83.7684 92.6986 84.0824 91.9748 84.7977 91.9512C85.513 91.9277 85.8677 92.6398 86.205 93.3284C86.5074 93.9345 86.7865 94.5113 87.2692 94.4936C87.7519 94.4819 88.0019 93.8875 88.2694 93.2636C88.566 92.5574 88.8801 91.8335 89.5953 91.81C90.3106 91.7864 90.6654 92.4985 91.0027 93.1871C91.3051 93.7933 91.5842 94.37 92.0669 94.3524C92.5496 94.3406 92.7996 93.7462 93.0671 93.1224C93.3637 92.4161 93.6777 91.6923 94.393 91.6687C95.1083 91.6452 95.463 92.3573 95.8003 93.0459C96.1027 93.652 96.3819 94.2288 96.8646 94.2111C97.3472 94.1994 97.5973 93.605 97.8648 92.9811C98.1614 92.2749 98.4754 91.551 99.1907 91.5275C99.906 91.5039 100.261 92.216 100.598 92.9046C100.9 93.5108 101.18 94.0876 101.662 94.0699C102.145 94.0581 102.395 93.4637 102.662 92.8399C102.965 92.1337 103.273 91.4098 103.988 91.3862L104 91.757C103.517 91.7688 103.267 92.3632 103 92.987C102.697 93.6932 102.389 94.4171 101.674 94.4407Z" fill="white"/>
<path d="M101.674 90.4568C100.959 90.4803 100.604 89.7682 100.267 89.0796C99.9641 88.4735 99.6792 87.8967 99.2023 87.9144C98.7197 87.9261 98.4696 88.5205 98.2021 89.1444C97.9055 89.8506 97.5915 90.5745 96.8762 90.598C96.1609 90.6216 95.8062 89.9095 95.4689 89.2209C95.1665 88.6147 94.8873 88.0379 94.4047 88.0556C93.922 88.0674 93.6719 88.6618 93.4044 89.2856C93.1078 89.9918 92.7938 90.7157 92.0785 90.7393C91.3632 90.7628 91.0085 90.0507 90.6712 89.3621C90.3688 88.7559 90.0897 88.1792 89.607 88.1969C89.1243 88.2086 88.8742 88.803 88.6067 89.4269C88.3102 90.1331 87.9961 90.857 87.2808 90.8805C86.5655 90.9041 86.2108 90.1919 85.8735 89.5034C85.5711 88.8972 85.292 88.3204 84.8093 88.3381C84.3266 88.3499 84.0766 88.9443 83.8091 89.5681C83.5125 90.2743 83.1984 90.9982 82.4832 91.0218C81.7679 91.0453 81.4131 90.3332 81.0758 89.6446C80.7734 89.0384 80.4943 88.4617 80.0116 88.4793L80 88.1086C80.7153 88.085 81.07 88.7971 81.4073 89.4857C81.7097 90.0919 81.9889 90.6687 82.4715 90.651C82.9542 90.6392 83.2043 90.0448 83.4718 89.421C83.7684 88.7148 84.0824 87.9909 84.7977 87.9673C85.513 87.9438 85.8677 88.6559 86.205 89.3445C86.5074 89.9507 86.7865 90.5274 87.2692 90.5097C87.7519 90.498 88.0019 89.9036 88.2694 89.2797C88.566 88.5735 88.8801 87.8496 89.5953 87.8261C90.3106 87.8025 90.6654 88.5147 91.0027 89.2032C91.3051 89.8094 91.5842 90.3862 92.0669 90.3685C92.5496 90.3567 92.7996 89.7623 93.0671 89.1385C93.3637 88.4323 93.6777 87.7084 94.393 87.6848C95.1083 87.6613 95.463 88.3734 95.8003 89.062C96.1027 89.6682 96.3819 90.2449 96.8646 90.2273C97.3472 90.2155 97.5973 89.6211 97.8648 88.9972C98.1614 88.291 98.4754 87.5671 99.1907 87.5436C99.906 87.52 100.261 88.2322 100.598 88.9207C100.9 89.5269 101.18 90.1037 101.662 90.086C102.145 90.0742 102.395 89.4798 102.662 88.856C102.965 88.1498 103.273 87.4259 103.988 87.4023L104 87.7731C103.517 87.7849 103.267 88.3793 103 89.0031C102.697 89.7094 102.389 90.4332 101.674 90.4568Z" fill="white"/>
</g>
<path d="M47 32V65.8114C47 66.7906 48.2617 67.1863 48.8209 66.3824L54.1048 58.7868C54.6656 57.9806 55.5855 57.5 56.5675 57.5H89C89.5523 57.5 90 57.0523 90 56.5V32C90 31.4477 89.5523 31 89 31H48C47.4477 31 47 31.4477 47 32Z" stroke="#23D2B3"/>
<circle cx="46" cy="80" r="3" fill="white"/>
<circle cx="58" cy="45" r="3" fill="#23D2B3"/>
<circle cx="69" cy="45" r="3" fill="#23D2B3"/>
<circle cx="80" cy="45" r="3" fill="#23D2B3"/>
<line x1="43" y1="18.5" x2="50" y2="18.5" stroke="white"/>
<path d="M67 27V14C67 12.8954 66.1046 12 65 12H29C27.8954 12 27 12.8954 27 14V87C27 88.1046 27.8954 89 29 89H65C66.1046 89 67 88.1046 67 87V61" stroke="white"/>
<path d="M67.6148 0.618938V3.0254C67.6148 3.36259 67.3377 3.64434 66.9959 3.64434C66.6541 3.64434 66.377 3.36721 66.377 3.0254V0.618938C66.377 0.277136 66.6541 0 66.9959 0C67.3331 0 67.6148 0.277136 67.6148 0.618938Z" fill="#23D2B3"/>
<path d="M75.9753 12.6191H78.3772C78.719 12.6191 78.9961 12.3431 78.9961 12.0025C78.9961 11.662 78.719 11.3859 78.3772 11.3859H75.9753C75.6335 11.3859 75.3564 11.662 75.3564 12.0025C75.3564 12.3431 75.6335 12.6191 75.9753 12.6191Z" fill="#23D2B3"/>
<path d="M73.7855 17.9121L75.4853 19.6118C75.7255 19.852 75.7255 20.2446 75.4853 20.4848C75.2451 20.725 74.8525 20.725 74.6123 20.4848L72.9126 18.7851C72.6724 18.5449 72.6724 18.1523 72.9126 17.9121C73.1527 17.6719 73.5454 17.6719 73.7855 17.9121Z" fill="#23D2B3"/>
<path d="M72.9126 5.21487L74.6123 3.5151C74.8525 3.27491 75.2451 3.27491 75.4853 3.5151C75.7255 3.75528 75.7255 4.14789 75.4853 4.38808L73.7855 6.08785C73.5454 6.32803 73.1527 6.32803 72.9126 6.08785C72.6724 5.84766 72.6724 5.45505 72.9126 5.21487Z" fill="#23D2B3"/>
<defs>
<clipPath id="clip0_245_3154">
<rect width="10.1213" height="10.1213" fill="white" transform="translate(9.15625 24) rotate(45)"/>
</clipPath>
<clipPath id="clip1_245_3154">
<rect width="19" height="2" fill="white" transform="translate(0 44)"/>
</clipPath>
<clipPath id="clip2_245_3154">
<rect width="24" height="12" fill="white" transform="translate(80 83)"/>
</clipPath>
</defs>
</svg>
