<svg width="36" height="36" viewBox="0 0 36 36" fill="none" xmlns="http://www.w3.org/2000/svg">
<g id="Frame 28">
<g id="Group">
<path id="Vector" d="M18 7C11.95 7 7 11.95 7 18C7 24.05 11.95 29 18 29C24.05 29 29 24.05 29 18C29 11.95 24.05 7 18 7ZM18 28.3125C12.3281 28.3125 7.6875 23.6719 7.6875 18C7.6875 12.3281 12.3281 7.6875 18 7.6875C23.6719 7.6875 28.3125 12.3281 28.3125 18C28.3125 23.6719 23.6719 28.3125 18 28.3125Z" fill="black"/>
<path id="Vector_2" d="M18.3438 8.375H17.6562V9.75H18.3438V8.375Z" fill="black"/>
<path id="Vector_3" d="M18.3438 26.25H17.6562V27.625H18.3438V26.25Z" fill="black"/>
<path id="Vector_4" d="M9.75 17.6562H8.375V18.3438H9.75V17.6562Z" fill="black"/>
<path id="Vector_5" d="M27.625 17.6562H26.25V18.3438H27.625V17.6562Z" fill="black"/>
<path id="Vector_6" d="M18.3438 11.125H17.6562V18.1375L20.8531 21.3344L21.3344 20.8531L18.3438 17.8625V11.125Z" fill="black"/>
</g>
</g>
</svg>
