<svg width="48" height="48" viewBox="0 0 48 48" fill="none" xmlns="http://www.w3.org/2000/svg">
<g id="Frame 26">
<g id="Group">
<g id="Group_2">
<path id="Vector" d="M24.5 41C14.8506 41 7 33.1494 7 23.5C7 13.8506 14.8506 6 24.5 6C34.1494 6 42 13.8506 42 23.5C42 33.1494 34.1494 41 24.5 41ZM24.5 7.45833C15.6546 7.45833 8.45833 14.6546 8.45833 23.5C8.45833 32.3454 15.6546 39.5417 24.5 39.5417C33.3454 39.5417 40.5417 32.3454 40.5417 23.5C40.5417 14.6546 33.3454 7.45833 24.5 7.45833Z" fill="white"/>
</g>
<g id="Group_3">
<path id="Vector_2" d="M26.5731 40.8681C26.5614 40.8681 26.5493 40.8681 26.5375 40.8674C26.1352 40.8482 25.8247 40.5064 25.844 40.1041C26.085 35.0825 22.9921 32.1053 20.3549 30.4918C19.4168 29.9185 18.898 28.9188 18.9671 27.8165C19.0362 26.7185 19.7016 25.7564 20.7035 25.305C21.0976 25.1277 21.3856 24.803 21.5142 24.3907C21.6427 23.9777 21.5907 23.5469 21.3671 23.1766L20.1189 21.1116C19.5211 20.1211 19.5588 18.8657 20.2154 17.9136L20.8658 16.9701C21.3023 16.3378 21.1891 15.4862 20.6031 14.9891L14.79 10.0608C14.4828 9.80023 14.4447 9.34022 14.7053 9.03332C14.9656 8.7257 15.4249 8.68796 15.7328 8.94858L21.5459 13.8769C22.7062 14.8602 22.9301 16.5464 22.0664 17.7983L21.4159 18.7418C21.0841 19.2224 21.0649 19.8569 21.3671 20.3575L22.6154 22.4225C23.0512 23.1445 23.1573 24.0197 22.9063 24.8243C22.6556 25.629 22.0707 26.2891 21.302 26.6351C20.7871 26.8666 20.4582 27.343 20.4226 27.9083C20.388 28.4609 20.6472 28.9615 21.1158 29.2478C24.0894 31.0671 27.5761 34.4395 27.3009 40.1739C27.282 40.5641 26.9598 40.8681 26.5731 40.8681Z" fill="#23D2B3"/>
</g>
<g id="Group_4">
<path id="Vector_3" d="M40.1668 30.2228C40.1465 30.2228 40.1262 30.2221 40.1055 30.22L34.3206 29.7372C33.3319 29.6553 32.5486 28.9439 32.3717 27.9677C32.1944 26.9914 32.6782 26.0501 33.5754 25.625C33.7883 25.5246 33.9318 25.3344 33.9699 25.1023C34.0055 24.8851 33.9425 24.6736 33.7962 24.5134L32.6654 23.7201C31.4271 22.8521 30.1034 22.1657 28.702 21.4387C28.2448 21.2015 27.7877 20.9644 27.3337 20.7209C26.5027 20.2751 25.9708 19.2811 25.9462 18.1282C25.9138 16.6193 26.7263 15.188 28.0661 14.3927C30.2511 13.096 31.1814 10.6514 30.328 8.44824L30.2614 8.2752C30.1162 7.89994 30.3031 7.47768 30.6787 7.33241C31.055 7.18857 31.4762 7.37371 31.6215 7.74969L31.6881 7.92201C32.7861 10.7568 31.5759 14.006 28.8102 15.6473C27.9084 16.1821 27.3829 17.0978 27.4042 18.0969C27.4174 18.7157 27.6606 19.2412 28.0237 19.4363C28.4713 19.6763 28.9224 19.9105 29.3735 20.1441C30.7556 20.8612 32.1848 21.6024 33.5028 22.5267L34.6877 23.3577C34.7187 23.3791 34.7475 23.4033 34.7749 23.4289C35.2873 23.9224 35.5244 24.6366 35.409 25.338C35.294 26.0401 34.8415 26.6404 34.1989 26.9437C33.7453 27.1581 33.7837 27.5825 33.8065 27.7071C33.8289 27.8324 33.9418 28.2425 34.4417 28.2846L40.2266 28.7673C40.6278 28.8008 40.9262 29.1533 40.8927 29.5542C40.8611 29.9352 40.542 30.2228 40.1668 30.2228Z" fill="#23D2B3"/>
</g>
</g>
</g>
</svg>
