<svg width="72" height="48" viewBox="0 0 72 48" fill="none" xmlns="http://www.w3.org/2000/svg">
<g id="Paypal" clip-path="url(#clip0_2_927)">
<path id="Vector" d="M63.5222 0H8.47784C3.79566 0 0 3.81052 0 8.51103V39.489C0 44.1895 3.79566 48 8.47784 48H63.5222C68.2043 48 72 44.1895 72 39.489V8.51103C72 3.81052 68.2043 0 63.5222 0Z" fill="white"/>
<g id="Group">
<g id="Group_2">
<path id="Vector_2" d="M20.9107 16.5791C21.4658 15.8848 21.8425 14.9526 21.7432 14C20.9306 14.0404 19.939 14.5361 19.365 15.2309C18.8495 15.8259 18.3933 16.7972 18.5122 17.7098C19.4244 17.789 20.3357 17.2539 20.9107 16.5791Z" fill="black"/>
<path id="Vector_3" d="M21.7326 17.8881C20.408 17.8092 19.2817 18.6399 18.6491 18.6399C18.0162 18.6399 17.0475 17.9279 15.9998 17.9471C14.6361 17.9671 13.3708 18.7381 12.6788 19.9644C11.2554 22.4176 12.3032 26.0566 13.6873 28.0546C14.3595 29.0431 15.1695 30.1314 16.2369 30.0923C17.2454 30.0528 17.6407 29.4393 18.8666 29.4393C20.0916 29.4393 20.4476 30.0923 21.5152 30.0726C22.6223 30.0528 23.3144 29.0836 23.9866 28.0942C24.7577 26.9673 25.0733 25.8793 25.0932 25.8196C25.0733 25.7998 22.9584 24.9885 22.9388 22.5557C22.9188 20.5186 24.5992 19.5497 24.6783 19.4896C23.7294 18.0861 22.2467 17.9279 21.7326 17.8881Z" fill="black"/>
</g>
<g id="Group_3">
<path id="Vector_4" d="M33.2666 15.1314C36.1457 15.1314 38.1505 17.1159 38.1505 20.0053C38.1505 22.905 36.1044 24.8999 33.1944 24.8999H30.0067V29.9693H27.7036V15.1313L33.2666 15.1314ZM30.0067 22.9667H32.6494C34.6546 22.9667 35.7958 21.8872 35.7958 20.0156C35.7958 18.1443 34.6546 17.0749 32.6597 17.0749H30.0067V22.9667Z" fill="black"/>
<path id="Vector_5" d="M38.752 26.8946C38.752 25.0025 40.2018 23.8406 42.7727 23.6966L45.7339 23.5219V22.689C45.7339 21.4859 44.9215 20.7661 43.5644 20.7661C42.2788 20.7661 41.4767 21.383 41.2816 22.3497H39.1839C39.3073 20.3958 40.9729 18.9563 43.6466 18.9563C46.2686 18.9563 47.9445 20.3445 47.9445 22.5141V29.9691H45.816V28.1902H45.7648C45.1377 29.3933 43.7699 30.1541 42.351 30.1541C40.2327 30.1541 38.752 28.8379 38.752 26.8946ZM45.7339 25.9178V25.0643L43.0706 25.2288C41.7441 25.3214 40.9936 25.9075 40.9936 26.8329C40.9936 27.7788 41.775 28.3958 42.9678 28.3958C44.5204 28.3958 45.7339 27.3264 45.7339 25.9178Z" fill="black"/>
<path id="Vector_6" d="M49.9542 33.9486V32.1491C50.1184 32.1901 50.4885 32.1901 50.6738 32.1901C51.702 32.1901 52.2573 31.7583 52.5965 30.6478C52.5965 30.6272 52.792 29.9898 52.792 29.9794L48.8848 19.1517H51.2906L54.0261 27.9538H54.067L56.8024 19.1517H59.1468L55.0951 30.5346C54.1701 33.1568 53.1006 34 50.859 34C50.6738 34 50.1184 33.9793 49.9542 33.9486Z" fill="black"/>
</g>
</g>
</g>
<defs>
<clipPath id="clip0_2_927">
<rect width="72" height="48" fill="white"/>
</clipPath>
</defs>
</svg>
