<svg width="49" height="37" viewBox="0 0 49 37" fill="none" xmlns="http://www.w3.org/2000/svg">
<path d="M47.8333 14.1702C47.5239 14.1702 47.2272 14.2946 47.0084 14.5161C46.7896 14.7375 46.6667 15.0379 46.6667 15.3511V20.4681H42.7778V16.9255C42.7778 16.1948 42.491 15.4939 41.9805 14.9772C41.4699 14.4605 40.7775 14.1702 40.0556 14.1702H37.5881C37.4854 14.1703 37.3868 14.1293 37.3139 14.0561L30.4461 7.10479C30.1942 6.8483 29.8945 6.64492 29.5644 6.50641C29.2343 6.36791 28.8804 6.29703 28.5231 6.29787H24.1111V2.3617H29.1667C29.4761 2.3617 29.7728 2.23729 29.9916 2.01584C30.2104 1.79439 30.3333 1.49403 30.3333 1.18085C30.3333 0.86767 30.2104 0.567316 29.9916 0.345863C29.7728 0.124411 29.4761 0 29.1667 0H16.7222C16.4128 0 16.1161 0.124411 15.8973 0.345863C15.6785 0.567316 15.5556 0.86767 15.5556 1.18085C15.5556 1.49403 15.6785 1.79439 15.8973 2.01584C16.1161 2.23729 16.4128 2.3617 16.7222 2.3617H21.7778V6.29787H8.94444C8.22247 6.29787 7.53006 6.58816 7.01954 7.10488C6.50903 7.62161 6.22222 8.32243 6.22222 9.05319V20.4681H2.33333V15.3511C2.33333 15.0379 2.21042 14.7375 1.99162 14.5161C1.77283 14.2946 1.47609 14.1702 1.16667 14.1702C0.857247 14.1702 0.560501 14.2946 0.341709 14.5161C0.122916 14.7375 4.61071e-09 15.0379 0 15.3511V27.9468C4.61071e-09 28.26 0.122916 28.5603 0.341709 28.7818C0.560501 29.0032 0.857247 29.1277 1.16667 29.1277C1.47609 29.1277 1.77283 29.0032 1.99162 28.7818C2.21042 28.5603 2.33333 28.26 2.33333 27.9468V22.8298H6.22222V27.2954C6.22139 27.657 6.29142 28.0153 6.42826 28.3494C6.5651 28.6835 6.76604 28.9868 7.01944 29.2418L13.8872 36.1931C14.1392 36.4496 14.4388 36.6529 14.7689 36.7915C15.099 36.93 15.4529 37.0008 15.8103 37H28.5231C28.8804 37.0008 29.2343 36.93 29.5644 36.7915C29.8945 36.6529 30.1942 36.4496 30.4461 36.1931L37.3139 29.2418C37.3868 29.1686 37.4854 29.1276 37.5881 29.1277H40.0556C40.7775 29.1277 41.4699 28.8374 41.9805 28.3206C42.491 27.8039 42.7778 27.1031 42.7778 26.3723V22.8298H46.6667V27.9468C46.6667 28.26 46.7896 28.5603 47.0084 28.7818C47.2272 29.0032 47.5239 29.1277 47.8333 29.1277C48.1428 29.1277 48.4395 29.0032 48.6583 28.7818C48.8771 28.5603 49 28.26 49 27.9468V15.3511C49 15.0379 48.8771 14.7375 48.6583 14.5161C48.4395 14.2946 48.1428 14.1702 47.8333 14.1702ZM40.4444 26.3723C40.4444 26.4767 40.4035 26.5768 40.3305 26.6507C40.2576 26.7245 40.1587 26.766 40.0556 26.766H37.5881C37.2307 26.7651 36.8768 26.836 36.5467 26.9745C36.2166 27.113 35.9169 27.3164 35.665 27.5729L28.7972 34.5241C28.7243 34.5973 28.6258 34.6384 28.5231 34.6383H15.8103C15.7076 34.6384 15.609 34.5973 15.5361 34.5241L8.66833 27.5729C8.59602 27.4991 8.55547 27.3993 8.55556 27.2954V9.05319C8.55556 8.9488 8.59653 8.84868 8.66946 8.77486C8.74239 8.70104 8.8413 8.65957 8.94444 8.65957H28.5231C28.6258 8.65949 28.7243 8.70053 28.7972 8.77372L35.665 15.725C35.9169 15.9815 36.2166 16.1849 36.5467 16.3234C36.8768 16.4619 37.2307 16.5328 37.5881 16.5319H40.0556C40.1587 16.5319 40.2576 16.5734 40.3305 16.6472C40.4035 16.721 40.4444 16.8211 40.4444 16.9255V26.3723Z" fill="white"/>
</svg>
