<svg width="96" height="96" viewBox="0 0 96 96" fill="none" xmlns="http://www.w3.org/2000/svg">
<g id="Frame 19">
<g id="Group 13">
<path id="Vector" d="M78.225 20.7899H69.3753V17.7751C69.3753 17.3467 69.0287 17 68.6003 17H27.3823C26.9539 17 26.6073 17.3467 26.6073 17.7751V20.7899H17.775C17.3466 20.7899 17 21.1366 17 21.565V31.7054C17 36.4627 21.0127 40.3335 25.9458 40.3335H26.6166C26.716 49.9411 32.0283 58.0189 40.2197 60.9566C41.9852 61.5896 43.2891 62.9249 43.8213 64.5989H41.9287C40.2712 64.5989 38.9225 65.9651 38.9225 67.6447V70.2016H38.0658C36.4249 70.2016 35.0906 71.5822 35.0906 73.28V78.2249C35.0906 78.6533 35.4373 79 35.8656 79H60.1169C60.5453 79 60.8919 78.6533 60.8919 78.2249V73.28C60.8919 71.5822 59.5576 70.2016 57.9176 70.2016H57.0601V67.6447C57.0601 65.9651 55.7114 64.5989 54.0539 64.5989H52.1617C52.6944 62.9251 53.9977 61.5895 55.7629 60.9566C63.9543 58.0196 69.2666 49.9411 69.366 40.3335H70.0542C74.9873 40.3335 79 36.4627 79 31.7054V21.565C79 21.1366 78.6534 20.7899 78.225 20.7899ZM18.55 31.7054V22.3401H26.6073V38.7834H25.9458C21.868 38.7834 18.55 35.6081 18.55 31.7054ZM59.3419 73.28V77.4498H36.6406V73.28C36.6406 72.4375 37.2802 71.7517 38.0658 71.7517H57.9176C58.7032 71.7517 59.3419 72.4375 59.3419 73.28ZM55.5101 67.6447V70.2016H40.4725V67.6447C40.4725 66.8197 41.1257 66.149 41.9287 66.149H54.0539C54.8569 66.149 55.5101 66.8197 55.5101 67.6447ZM67.8253 40.0618C67.8253 49.1274 62.8854 56.7557 55.2391 59.4972C52.8882 60.3408 51.1407 62.2763 50.5676 64.5989H45.4155C44.842 62.2757 43.0947 60.3406 40.7435 59.4972C33.0979 56.7557 28.1573 49.1267 28.1573 40.0618V18.5502H67.8253V40.0618ZM77.45 31.7054C77.45 35.6081 74.132 38.7834 70.0542 38.7834H69.3753V22.3401H77.45V31.7054Z" fill="white"/>
<path id="Vector_2" d="M54.6286 34.3143C54.6286 37.7674 51.7674 40.6286 48.3143 40.6286C44.8611 40.6286 42 37.7674 42 34.3143C42 30.8611 44.8611 28 48.3143 28C51.7674 28 54.6286 30.8611 54.6286 34.3143Z" stroke="#23D2B3" stroke-width="2"/>
</g>
</g>
</svg>
