<svg width="64" height="64" viewBox="0 0 64 64" fill="none" xmlns="http://www.w3.org/2000/svg">
<g id="Frame 11">
<rect width="64" height="64" rx="8" fill="black"/>
<g id="Group 10">
<path id="Vector" d="M14.4499 50H44.9344C45.1827 50 45.3843 49.7975 45.3843 49.5479V34.9901L46.5976 35.6728C46.6655 35.7108 46.7411 35.7302 46.8176 35.7302C46.8585 35.7302 46.8999 35.7248 46.9395 35.713C47.0542 35.6805 47.1519 35.6032 47.2099 35.4987L49.9425 30.5942C50.064 30.3762 49.9866 30.1009 49.7698 29.9788L45.7496 27.7169C46.7407 27.3859 47.6674 26.6711 47.9567 25.7045C48.2437 24.7455 48.0094 23.2789 45.265 21.7344C43.0363 20.4803 40.476 20.1796 38.541 20.931C38.3979 20.7773 38.2405 20.6367 38.0511 20.53C37.8617 20.4233 37.661 20.3528 37.4554 20.3112C37.0802 18.2585 35.5051 16.243 33.2597 14.9793C30.515 13.4349 29.1482 14.0014 28.4846 14.7478C27.8156 15.5006 27.6928 16.668 27.9299 17.6902L23.1714 15.0123C23.0671 14.9536 22.9433 14.9382 22.8295 14.9716C22.7148 15.0042 22.6172 15.0815 22.5591 15.1859L19.8265 20.0905C19.705 20.3085 19.7824 20.5838 19.9993 20.7059L34.0574 28.6166H14.4499C14.2016 28.6166 14 28.8191 14 29.0687V49.5479C14 49.7975 14.2016 50 14.4499 50ZM46.6448 34.6628L36.8575 29.1555L39.1506 25.0399L48.9379 30.5471L46.6448 34.6628ZM38.3651 24.5982L36.072 28.7138L32.1431 26.5029L34.4362 22.3873L38.3651 24.5982ZM44.8255 22.5238C46.5607 23.5004 47.3665 24.5376 47.0952 25.4445C46.8172 26.3736 45.476 27.041 44.5029 27.0156L38.8699 23.8458C39.2005 23.1365 39.2379 22.3737 39.0152 21.729C40.6883 21.1417 42.882 21.4302 44.8255 22.5238ZM38.0862 23.405L35.5947 22.003C35.9546 21.4867 36.4859 21.1824 36.9956 21.1729C37.0186 21.1765 37.0402 21.1856 37.064 21.1856C37.0807 21.1856 37.0977 21.1847 37.1144 21.1828C37.1189 21.1824 37.1225 21.1792 37.1274 21.1788C37.2962 21.1928 37.4608 21.2344 37.6115 21.3194C38.254 21.6806 38.442 22.5826 38.0862 23.405ZM29.1559 15.3501C29.7835 14.643 31.085 14.7917 32.8202 15.7683C34.779 16.8705 36.1633 18.5823 36.539 20.3216C35.8714 20.4662 35.2334 20.8985 34.8024 21.5572L29.1847 18.396C28.6484 17.5758 28.5112 16.0762 29.1559 15.3501ZM23.1242 16.0224L33.6511 21.946L31.3581 26.0617L20.8316 20.138L23.1242 16.0224ZM14.8998 29.5208H35.6644L44.4845 34.4837V49.0958H14.8998V29.5208Z" fill="white" stroke="white" stroke-width="0.25"/>
<path id="Vector_2" d="M32.9803 37.9206L32.9394 38.1704L33.1164 38.3512L35.8521 41.1455L32.0919 41.7178L31.8284 41.7579L31.7149 41.999L30.054 45.5248L28.3932 41.999L28.2796 41.7579L28.0161 41.7178L24.2559 41.1455L26.9925 38.3513L27.1696 38.1704L27.1287 37.9206L26.4875 34.0054L29.8133 35.8369L30.0545 35.9697L30.2957 35.8369L33.6214 34.0054L32.9803 37.9206Z" stroke="#23D2B3"/>
</g>
</g>
</svg>
