<svg width="64" height="64" viewBox="0 0 64 64" fill="none" xmlns="http://www.w3.org/2000/svg">
<g id="Frame 12">
<rect width="64" height="64" rx="8" fill="black"/>
<g id="Group 11">
<path id="Vector" d="M21.9375 41C21.7552 40.9999 21.5804 40.9255 21.4515 40.7931C21.3226 40.6608 21.2501 40.4813 21.25 40.2941V35.3529H16.6215C15.6613 35.3518 14.7408 34.9597 14.0619 34.2626C13.383 33.5656 13.0011 32.6204 13 31.6346V20.7183C13.0011 19.7325 13.383 18.7874 14.0619 18.0903C14.7408 17.3932 15.6613 17.0011 16.6215 17H31.3785C32.3387 17.0011 33.2592 17.3932 33.9381 18.0903C34.617 18.7874 34.9989 19.7325 35 20.7183V31.6346C34.9989 32.6204 34.617 33.5656 33.9381 34.2626C33.2592 34.9597 32.3387 35.3518 31.3785 35.3529H26.6675L22.4738 40.7353C22.4093 40.8178 22.3277 40.8844 22.2349 40.9302C22.1421 40.976 22.0405 40.9999 21.9375 41ZM16.6215 18.4118C16.0259 18.4125 15.4549 18.6557 15.0337 19.0881C14.6126 19.5205 14.3757 20.1068 14.375 20.7183V31.6346C14.3757 32.2462 14.6126 32.8324 15.0337 33.2648C15.4549 33.6973 16.0259 33.9405 16.6215 33.9412H21.9375C22.1198 33.9412 22.2947 34.0155 22.4236 34.1479C22.5526 34.2803 22.625 34.4598 22.625 34.6471V38.2819L25.8006 34.2059C25.865 34.1232 25.9467 34.0565 26.0397 34.0107C26.1326 33.9648 26.2344 33.9411 26.3375 33.9412H31.3786C31.9742 33.9405 32.5452 33.6972 32.9663 33.2648C33.3874 32.8324 33.6243 32.2461 33.625 31.6346V20.7183C33.6243 20.1068 33.3874 19.5205 32.9663 19.0881C32.5451 18.6557 31.9741 18.4125 31.3785 18.4118H16.6215Z" fill="white"/>
<path id="Vector_2" d="M43.4375 47C43.3344 47 43.2327 46.9761 43.1398 46.9303C43.0469 46.8845 42.9652 46.8179 42.9007 46.7353L38.7075 41.3529H32.6218C31.6616 41.3519 30.741 40.9598 30.062 40.2627C29.383 39.5657 29.0011 38.6205 29 37.6346V36.4118C29 36.2246 29.0724 36.045 29.2014 35.9126C29.3303 35.7803 29.5052 35.7059 29.6875 35.7059C29.8698 35.7059 30.0447 35.7803 30.1736 35.9126C30.3026 36.045 30.375 36.2246 30.375 36.4118V37.6346C30.3757 38.2462 30.6126 38.8324 31.0337 39.2648C31.4549 39.6973 32.0259 39.9405 32.6215 39.9412H39.0375C39.1406 39.9411 39.2424 39.9649 39.3353 40.0107C39.4282 40.0565 39.5099 40.1232 39.5743 40.2059L42.75 44.2819V40.6471C42.75 40.4598 42.8224 40.2803 42.9514 40.1479C43.0803 40.0155 43.2552 39.9412 43.4375 39.9412H47.3785C47.9741 39.9405 48.5451 39.6973 48.9663 39.2648C49.3874 38.8324 49.6243 38.2462 49.625 37.6346V26.7183C49.6245 26.1318 49.4066 25.5675 49.0156 25.1399C48.6247 24.7123 48.0899 24.4535 47.5199 24.4159C47.4762 24.4132 47.4275 24.4118 47.3785 24.4118L44.126 24.4173L36.5625 24.4118C36.3802 24.4118 36.2053 24.3374 36.0764 24.205C35.9474 24.0726 35.875 23.8931 35.875 23.7059C35.875 23.5187 35.9474 23.3391 36.0764 23.2067C36.2053 23.0744 36.3802 23 36.5625 23L44.1253 23.0055L47.3776 23C47.4532 23 47.5272 23.0028 47.6004 23.0071C48.5203 23.0664 49.3836 23.4831 50.0151 24.1724C50.6465 24.8617 50.9987 25.772 51 26.7183V37.6346C50.9989 38.6204 50.617 39.5656 49.9381 40.2626C49.2592 40.9597 48.3387 41.3518 47.3785 41.3529H44.125V46.2941C44.1249 46.4813 44.0524 46.6608 43.9235 46.7931C43.7946 46.9255 43.6198 46.9999 43.4375 47Z" fill="white"/>
<path id="Vector_3" d="M23.9987 28C23.8396 28 23.6871 27.9386 23.5746 27.8292C23.4621 27.7198 23.3989 27.5715 23.3989 27.4169C23.3981 27.0139 23.5205 26.6199 23.7504 26.2847C23.9803 25.9495 24.3075 25.6883 24.6904 25.5342C24.9913 25.4126 25.2526 25.2138 25.4465 24.9591C25.6403 24.7044 25.7594 24.4033 25.7911 24.088C25.8227 23.7726 25.7657 23.4548 25.6262 23.1685C25.4866 22.8821 25.2697 22.638 24.9987 22.4621C24.7276 22.2862 24.4125 22.1852 24.087 22.1698C23.7615 22.1544 23.4378 22.2252 23.1505 22.3747C22.8631 22.5241 22.6229 22.7466 22.4554 23.0184C22.2879 23.2902 22.1995 23.6012 22.1995 23.918C22.1995 24.0727 22.1363 24.221 22.0238 24.3304C21.9113 24.4397 21.7588 24.5012 21.5997 24.5012C21.4407 24.5012 21.2881 24.4397 21.1757 24.3304C21.0632 24.221 21 24.0727 21 23.918C20.9998 23.3899 21.1471 22.8716 21.4261 22.4185C21.7051 21.9654 22.1054 21.5945 22.5843 21.3452C23.0631 21.096 23.6026 20.9779 24.1451 21.0034C24.6876 21.029 25.2128 21.1972 25.6647 21.4903C26.1165 21.7833 26.4781 22.1901 26.7108 22.6673C26.9434 23.1445 27.0385 23.6742 26.9859 24.1998C26.9332 24.7255 26.7348 25.2273 26.4117 25.6519C26.0887 26.0764 25.6531 26.4078 25.1516 26.6105C24.9876 26.6765 24.8475 26.7884 24.749 26.932C24.6505 27.0755 24.5981 27.2443 24.5984 27.4169C24.5984 27.5715 24.5352 27.7198 24.4228 27.8292C24.3103 27.9386 24.1577 28 23.9987 28Z" fill="white"/>
<path id="Vector_4" d="M23.5 31C23.7761 31 24 30.7761 24 30.5C24 30.2239 23.7761 30 23.5 30C23.2239 30 23 30.2239 23 30.5C23 30.7761 23.2239 31 23.5 31Z" fill="white"/>
<path id="Vector_5" d="M47.3333 29H36.6667C36.4899 29 36.3203 28.9473 36.1953 28.8536C36.0702 28.7598 36 28.6326 36 28.5C36 28.3674 36.0702 28.2402 36.1953 28.1464C36.3203 28.0527 36.4899 28 36.6667 28H47.3333C47.5101 28 47.6797 28.0527 47.8047 28.1464C47.9298 28.2402 48 28.3674 48 28.5C48 28.6326 47.9298 28.7598 47.8047 28.8536C47.6797 28.9473 47.5101 29 47.3333 29Z" fill="#23D2B3"/>
<path id="Vector_6" d="M47.3333 32H36.6667C36.4899 32 36.3203 31.9473 36.1953 31.8536C36.0702 31.7598 36 31.6326 36 31.5C36 31.3674 36.0702 31.2402 36.1953 31.1464C36.3203 31.0527 36.4899 31 36.6667 31H47.3333C47.5101 31 47.6797 31.0527 47.8047 31.1464C47.9298 31.2402 48 31.3674 48 31.5C48 31.6326 47.9298 31.7598 47.8047 31.8536C47.6797 31.9473 47.5101 32 47.3333 32Z" fill="#23D2B3"/>
<path id="Vector_7" d="M47.3333 34H36.6667C36.4899 34 36.3203 33.9473 36.1953 33.8536C36.0702 33.7598 36 33.6326 36 33.5C36 33.3674 36.0702 33.2402 36.1953 33.1464C36.3203 33.0527 36.4899 33 36.6667 33H47.3333C47.5101 33 47.6797 33.0527 47.8047 33.1464C47.9298 33.2402 48 33.3674 48 33.5C48 33.6326 47.9298 33.7598 47.8047 33.8536C47.6797 33.9473 47.5101 34 47.3333 34Z" fill="#23D2B3"/>
<path id="Vector_8" d="M40.2857 37H36.7143C36.5248 37 36.3432 36.9473 36.2092 36.8536C36.0753 36.7598 36 36.6326 36 36.5C36 36.3674 36.0753 36.2402 36.2092 36.1464C36.3432 36.0527 36.5248 36 36.7143 36H40.2857C40.4752 36 40.6568 36.0527 40.7908 36.1464C40.9247 36.2402 41 36.3674 41 36.5C41 36.6326 40.9247 36.7598 40.7908 36.8536C40.6568 36.9473 40.4752 37 40.2857 37Z" fill="#23D2B3"/>
</g>
</g>
</svg>
