<svg width="96" height="96" viewBox="0 0 96 96" fill="none" xmlns="http://www.w3.org/2000/svg">
<g id="Frame 17">
<g id="Group">
<path id="Vector" d="M85.8958 51.2612L62.4983 27.8637C62.3906 27.756 62.2829 27.6945 62.1445 27.6483L56.7451 25.8178L54.9145 20.4183C54.8683 20.2799 54.7914 20.1568 54.6991 20.0645L46.9 12.2654C46.5462 11.9115 45.9616 11.9115 45.5924 12.2654L38.9008 18.9569C38.5932 19.2646 38.547 19.7569 38.7777 20.1261C39.6238 21.3875 39.993 22.9104 39.8392 24.4179L35.455 20.0338C35.1012 19.6799 34.5167 19.6799 34.1475 20.0338L27.4559 26.7254C27.1482 27.033 27.1021 27.5253 27.3328 27.8945C29.0403 30.448 28.7173 33.8015 26.5944 35.8628C24.4101 37.9857 21.0566 38.3087 18.6261 36.632C18.2569 36.3859 17.7646 36.432 17.4569 36.7397L10.7654 43.4313C10.4115 43.7851 10.4115 44.3696 10.7654 44.7388L18.5645 52.538C18.6722 52.6457 18.7799 52.7072 18.9183 52.7533L24.3178 54.5839L26.1483 59.9833C26.1945 60.1218 26.2714 60.2448 26.3637 60.3371L49.7612 83.7346C50.115 84.0885 50.6996 84.0885 51.0687 83.7346L57.2066 77.5968C57.545 77.2584 57.5757 76.72 57.2681 76.3508C55.0683 73.6588 55.4529 69.69 58.1449 67.4902C60.4677 65.5827 63.8058 65.5827 66.1287 67.4902C66.4979 67.7979 67.0363 67.7671 67.3747 67.4287L74.4662 60.3371C74.8201 59.9833 74.8201 59.3988 74.4662 59.0296L73.7125 58.2758C75.1277 58.3066 76.4968 58.8142 77.5736 59.7218C77.9428 60.0295 78.4812 59.9987 78.8196 59.6603L85.9112 52.5687C86.265 52.2149 86.265 51.6304 85.8958 51.2612ZM46.2539 14.219L53.2531 21.2182L54.9914 26.3562L47.1461 34.2015L45.3155 33.5862L43.4849 28.1867C43.4388 28.0483 43.3619 27.9252 43.2696 27.8329L41.4082 25.9716C42.0082 23.8949 41.762 21.649 40.716 19.7569L46.2539 14.219ZM19.7029 51.0766L12.7036 44.0773L18.2261 38.5549C21.3027 40.247 25.2407 39.724 27.8712 37.1858C30.4556 34.6783 30.994 30.7249 29.2557 27.5253L34.7936 21.9874L41.7928 28.9866L43.5311 34.1246L24.8562 52.8149L19.7029 51.0766ZM66.6209 65.552C62.8675 63.0753 57.8065 64.106 55.3298 67.8594C53.53 70.5822 53.53 74.1203 55.3298 76.8431L50.4073 81.7656L27.8097 59.1834L26.1176 54.1532L44.8848 35.386L49.915 37.0781L72.5126 59.6757L66.6209 65.552ZM78.0659 57.7836C76.2814 56.5991 74.097 56.153 72.005 56.5683L51.0534 35.6321C50.9457 35.5244 50.838 35.4629 50.6996 35.4167L49.0843 34.8783L56.3143 27.6483L61.3446 29.3405L83.9422 51.938L78.0659 57.7836Z" fill="white"/>
<path id="Vector_2" d="M46.054 52.2147L41.8698 50.8149C41.3929 50.661 40.8699 50.9226 40.7007 51.3994C40.6391 51.584 40.6391 51.7994 40.7007 51.984L42.1005 56.1682L39.5623 59.6755C39.2701 60.0908 39.347 60.66 39.7623 60.9676C39.9161 61.0753 40.1161 61.1369 40.3007 61.1369H40.3161L44.6695 61.0907L47.1615 64.6288C47.4538 65.0441 48.023 65.1518 48.4537 64.8595C48.6229 64.7365 48.746 64.5673 48.8075 64.3827L50.0997 60.2139L54.2685 58.9217C54.7607 58.7679 55.0222 58.2602 54.8838 57.768C54.8222 57.568 54.6992 57.3988 54.53 57.2911L50.9919 54.7991L51.038 50.4457C51.038 49.938 50.6381 49.5227 50.1304 49.5073C49.9305 49.5073 49.7459 49.5689 49.5767 49.6765L46.054 52.2147ZM51.9149 57.7065L49.0844 58.5833C48.7921 58.6756 48.5614 58.9063 48.4691 59.1986L47.5922 62.0291L45.9001 59.6293C45.7309 59.3832 45.4386 59.2447 45.1464 59.2447H45.131L42.1313 59.2755L43.8696 56.8758C44.0388 56.6296 44.0849 56.322 43.9926 56.0451L43.0389 53.1685L45.9155 54.1222C46.1924 54.2145 46.5154 54.1684 46.7462 53.9992L49.1459 52.2609L49.1152 55.2606C49.1152 55.5682 49.2536 55.8451 49.4997 56.0297L51.9149 57.7065Z" fill="#23D2B3"/>
</g>
</g>
</svg>
