<svg width="64" height="64" viewBox="0 0 64 64" fill="none" xmlns="http://www.w3.org/2000/svg">
<g id="Frame 13">
<rect width="64" height="64" rx="8" fill="black"/>
<g id="Group">
<path id="Vector" d="M32.2607 42.3404C34.7483 42.3374 37.1331 41.3479 38.8921 39.5889C40.6511 37.8299 41.6406 35.445 41.6437 32.9575V23.383C41.6437 20.8945 40.6551 18.5079 38.8954 16.7482C37.1358 14.9886 34.7492 14 32.2607 14C29.7721 14 27.3855 14.9886 25.6259 16.7482C23.8662 18.5079 22.8777 20.8945 22.8777 23.383V32.9575C22.8807 35.445 23.8703 37.8299 25.6293 39.5889C27.3882 41.3479 29.7731 42.3374 32.2607 42.3404ZM24.4096 23.383C24.4096 21.3008 25.2368 19.3038 26.7091 17.8314C28.1815 16.3591 30.1784 15.5319 32.2607 15.5319C34.3429 15.5319 36.3399 16.3591 37.8122 17.8314C39.2846 19.3038 40.1117 21.3008 40.1117 23.383V32.9575C40.1117 35.0397 39.2846 37.0366 37.8122 38.509C36.3399 39.9814 34.3429 40.8085 32.2607 40.8085C30.1784 40.8085 28.1815 39.9814 26.7091 38.509C25.2368 37.0366 24.4096 35.0397 24.4096 32.9575V23.383Z" fill="white"/>
<path id="Vector_2" d="M29.3883 22.4256H35.133C35.3361 22.4256 35.5309 22.3449 35.6746 22.2012C35.8182 22.0576 35.8989 21.8628 35.8989 21.6596C35.8989 21.4565 35.8182 21.2617 35.6746 21.118C35.5309 20.9744 35.3361 20.8937 35.133 20.8937H29.3883C29.1851 20.8937 28.9903 20.9744 28.8467 21.118C28.703 21.2617 28.6223 21.4565 28.6223 21.6596C28.6223 21.8628 28.703 22.0576 28.8467 22.2012C28.9903 22.3449 29.1851 22.4256 29.3883 22.4256Z" fill="#23D2B3"/>
<path id="Vector_3" d="M29.1969 28.9361H35.3245C35.5277 28.9361 35.7225 28.8554 35.8661 28.7117C36.0098 28.5681 36.0905 28.3733 36.0905 28.1701C36.0905 27.967 36.0098 27.7722 35.8661 27.6285C35.7225 27.4849 35.5277 27.4042 35.3245 27.4042H29.1969C28.9937 27.4042 28.7989 27.4849 28.6553 27.6285C28.5116 27.7722 28.4309 27.967 28.4309 28.1701C28.4309 28.3733 28.5116 28.5681 28.6553 28.7117C28.7989 28.8554 28.9937 28.9361 29.1969 28.9361Z" fill="#23D2B3"/>
<path id="Vector_4" d="M35.133 34.2979H29.3883C29.1851 34.2979 28.9903 34.3785 28.8467 34.5222C28.703 34.6658 28.6223 34.8607 28.6223 35.0638C28.6223 35.267 28.703 35.4618 28.8467 35.6054C28.9903 35.7491 29.1851 35.8298 29.3883 35.8298H35.133C35.3361 35.8298 35.5309 35.7491 35.6746 35.6054C35.8182 35.4618 35.8989 35.267 35.8989 35.0638C35.8989 34.8607 35.8182 34.6658 35.6746 34.5222C35.5309 34.3785 35.3361 34.2979 35.133 34.2979Z" fill="#23D2B3"/>
<path id="Vector_5" d="M44.133 48.5676C43.6581 48.2957 32.3258 41.9689 20.3883 48.5676C20.2408 48.6512 20.1251 48.7815 20.0596 48.9379C19.994 49.0943 19.9822 49.268 20.026 49.4319C20.0698 49.5957 20.1668 49.7404 20.3016 49.8432C20.4365 49.946 20.6017 50.0011 20.7713 50H43.75C43.9196 50.0011 44.0848 49.946 44.2197 49.8432C44.3546 49.7404 44.4516 49.5957 44.4954 49.4319C44.5392 49.268 44.5274 49.0943 44.4618 48.9379C44.3962 48.7815 44.2806 48.6512 44.133 48.5676ZM24.2909 48.468C30.5334 46.1931 36.3969 47.3191 39.9203 48.468H24.2909Z" fill="white"/>
<path id="Vector_6" d="M43.7501 23.1915C43.5469 23.1915 43.3521 23.2722 43.2084 23.4159C43.0648 23.5595 42.9841 23.7543 42.9841 23.9575V29.7022C42.9841 38.6715 39.3764 43.2175 32.2607 43.2175C25.1449 43.2175 21.5373 38.6715 21.5373 29.7022V23.9575C21.5373 23.7543 21.4566 23.5595 21.3129 23.4159C21.1693 23.2722 20.9745 23.1915 20.7713 23.1915C20.5682 23.1915 20.3734 23.2722 20.2297 23.4159C20.0861 23.5595 20.0054 23.7543 20.0054 23.9575V29.7022C20.0054 42.1413 26.6692 44.7494 32.2607 44.7494C37.8522 44.7494 44.516 42.1413 44.516 29.7022V23.9575C44.516 23.7543 44.4353 23.5595 44.2917 23.4159C44.148 23.2722 43.9532 23.1915 43.7501 23.1915Z" fill="white"/>
</g>
</g>
</svg>
