<svg width="1348" height="140" viewBox="0 0 1348 140" fill="none" xmlns="http://www.w3.org/2000/svg">
<g clip-path="url(#clip0_379_8)">
<path d="M258.57 0.242565C250.609 11.4612 242.198 22.7 234.258 33.8984C226.317 45.117 218.132 56.3355 210.171 67.5541C206.897 56.3558 203.397 45.117 200.348 33.8984C197.319 22.7 193.799 11.4612 190.525 0.242565H135.578C127.617 11.4612 119.206 22.7 111.266 33.8984C103.326 45.0967 95.1397 56.3355 87.179 67.5541C83.6796 56.3558 80.262 45.0967 77.1309 33.8984C73.9589 22.6595 70.5822 11.4612 67.3079 0.242565H0C6.77377 23.5287 13.568 46.8351 20.3418 70.1011C27.1155 93.367 33.8893 116.673 40.9086 139.96H95.856C104.738 127.649 113.476 115.42 122.501 103.049C131.464 90.7999 140.039 78.4493 149.146 66.1392C152.645 78.4493 156.267 90.719 159.89 103.049C163.512 115.319 166.909 127.649 170.633 139.96H225.581C242.178 116.694 259.102 93.4277 275.842 70.1011C292.52 46.8755 309.281 23.5287 326.103 0.242565H258.529H258.57Z" fill="#EAEAEA"/>
<path d="M393.861 0.202137H333.756C332.733 4.70979 329.827 16.8178 326.143 32.16C316.955 70.3841 302.814 128.741 300.419 139.96H363.614C368.648 116.673 373.478 93.367 378.533 70.0809C383.546 46.916 388.56 23.7511 393.779 0.565983C393.697 0.444701 393.595 0.343633 393.513 0.222351H393.861C393.861 0.222351 393.861 0.222351 393.861 0.202137Z" fill="#EAEAEA"/>
<path d="M561.22 0.222351C558.682 12.4718 556.063 24.7011 553.423 36.9506C550.803 49.1597 548.163 61.4294 545.626 73.6587C535.087 61.4092 524.813 49.1395 514.417 36.9506C503.94 24.6607 493.544 12.4718 483.025 0.222351C453.31 0.222351 393.82 0.444702 393.779 0.565984C395.355 2.58735 430.983 49.6852 436.795 57.1239C428.405 53.3237 420.219 49.5033 412.033 45.7031C408.718 61.4092 405.219 77.1354 401.883 92.8415C398.568 108.548 395.068 124.274 391.753 139.98H455.132C457.669 127.73 460.309 115.481 462.929 103.272C465.569 91.0222 468.188 78.7929 470.93 66.5435C481.265 78.7929 491.538 91.0829 501.934 103.272C512.412 115.562 522.808 127.751 533.327 139.98H594.761C599.837 116.694 604.707 93.3872 609.782 70.1011C614.857 46.8149 619.912 23.5085 624.803 0.222351H561.24H561.22Z" fill="#EAEAEA"/>
<path d="M393.513 0.222351C393.594 0.343633 393.696 0.444702 393.777 0.565984C393.798 0.444702 393.818 0.343633 393.859 0.222351H393.513Z" fill="#EAEAEA"/>
<path d="M856.216 0.222351H792.653C790.116 12.4718 787.496 24.7011 784.857 36.9506C782.237 49.1597 779.597 61.4294 777.06 73.6587C766.52 61.4092 756.247 49.1395 745.851 36.9506C735.373 24.6607 724.977 12.4718 714.458 0.222351H624.947C632.355 9.70257 639.374 19.203 646.598 28.6832C653.822 38.1634 660.841 47.6437 668.25 57.1239C659.859 53.3237 651.673 49.5033 643.487 45.7031C640.172 61.4092 636.673 77.1354 633.337 92.8415C630.022 108.548 626.522 124.274 623.207 139.98H686.586C689.123 127.73 691.763 115.481 694.383 103.272C697.023 91.0222 699.642 78.7929 702.384 66.5435C712.719 78.7929 722.992 91.0829 733.388 103.272C743.866 115.562 754.262 127.751 764.781 139.98H826.215C831.291 116.694 836.161 93.3872 841.236 70.1011C846.312 46.8149 851.366 23.5085 856.257 0.222351H856.216Z" fill="#EAEAEA"/>
<path d="M1009.21 11.3197C1006.49 4.95235 1001.23 1.11175 993.676 0.363847V0.222351H914.929C922.071 9.72278 929.356 19.2636 936.355 28.6832C943.415 38.2039 951.049 47.6437 958.191 57.1239C945.38 51.2619 932.569 45.3999 919.984 39.538C905.495 56.2951 890.801 73.0321 876.517 89.769C862.233 106.506 847.969 123.243 833.685 139.98H904.86C908.421 135.573 912.432 131.146 916.198 126.72H988.008C990.095 131.126 991.773 135.553 993.881 139.98H1065.28C1055.62 118.553 1046.17 97.1066 1036.94 75.68C1027.69 54.2535 1018.46 32.7866 1009.23 11.3399L1009.21 11.3197ZM943.702 94.8022C950.414 86.9997 957.352 79.177 964.064 71.3745C967.42 79.1972 970.777 86.9997 974.153 94.8022H943.702Z" fill="#23D2B3"/>
<path d="M1279.4 0.242565H1070.15C1077.4 9.743 1084.42 19.2232 1091.66 28.7034C1098.91 38.1837 1106.15 47.6639 1113.17 57.1441C1104.98 53.3439 1096.57 49.5437 1088.63 45.7234C1085.13 61.4294 1081.96 77.1759 1078.58 92.8617C1075.19 108.588 1071.81 124.274 1068.54 140H1131.65C1135.39 122.03 1139.24 104.06 1143.11 86.0901C1146.96 68.1403 1150.82 50.1299 1154.57 32.16H1224.95C1227.98 32.16 1230.04 34.6058 1229.39 37.5772C1227.71 45.0563 1226.38 52.5758 1224.7 60.0549C1224.05 63.0465 1220.96 65.4721 1217.93 65.4721H1154.57C1163.7 77.9036 1173.58 90.2743 1182.85 102.746C1192.04 115.097 1201.78 127.589 1211.38 140H1277.07C1271.69 132.905 1266.16 125.911 1260.7 118.695C1255.4 111.701 1249.95 104.485 1244.8 97.3693H1258.84C1270.52 97.3693 1281.98 87.8891 1284.54 76.3269C1286.42 67.1499 1288.51 57.9729 1290.39 48.8161C1292.28 39.639 1294.28 30.462 1296.25 21.3052C1298.72 9.70257 1291.11 0.242565 1279.4 0.242565Z" fill="#23D2B3"/>
<path d="M1310.28 2.20329H1316.65V19.8903H1319.17V2.20329H1325.55V0H1310.28V2.20329Z" fill="#EDEDED"/>
<path d="M1344.4 0L1338.12 15.1401L1331.87 0H1328.29V19.8903H1330.79V3.33526L1337.6 19.8903H1338.63L1345.48 3.33526V19.8903H1348V0H1344.4Z" fill="#EDEDED"/>
</g>
<defs>
<clipPath id="clip0_379_8">
<rect width="1348" height="140" fill="white"/>
</clipPath>
</defs>
</svg>
