<svg width="49" height="49" viewBox="0 0 49 49" fill="none" xmlns="http://www.w3.org/2000/svg">
<g clip-path="url(#clip0_2_72)">
<path d="M24.5 12.25C24.9061 12.25 25.2956 12.4113 25.5828 12.6985C25.8699 12.9857 26.0312 13.3751 26.0312 13.7812V18.375C26.0312 18.7811 25.8699 19.1706 25.5828 19.4578C25.2956 19.7449 24.9061 19.9062 24.5 19.9062C24.0939 19.9062 23.7044 19.7449 23.4172 19.4578C23.1301 19.1706 22.9688 18.7811 22.9688 18.375V13.7812C22.9688 13.3751 23.1301 12.9857 23.4172 12.6985C23.7044 12.4113 24.0939 12.25 24.5 12.25ZM11.4293 17.5542C11.7164 17.2672 12.1058 17.1059 12.5118 17.1059C12.9179 17.1059 13.3073 17.2672 13.5944 17.5542L16.3966 20.3534C16.539 20.4957 16.6519 20.6648 16.729 20.8508C16.806 21.0368 16.8457 21.2362 16.8457 21.4375C16.8457 21.6388 16.806 21.8382 16.729 22.0242C16.6519 22.2102 16.539 22.3793 16.3966 22.5216C16.2543 22.664 16.0852 22.7769 15.8992 22.854C15.7132 22.931 15.5138 22.9707 15.3125 22.9707C15.1112 22.9707 14.9118 22.931 14.7258 22.854C14.5398 22.7769 14.3707 22.664 14.2284 22.5216L11.4293 19.7194C11.1422 19.4323 10.9809 19.0429 10.9809 18.6368C10.9809 18.2308 11.1422 17.8414 11.4293 17.5542ZM6.125 30.625C6.125 30.2189 6.28633 29.8294 6.57349 29.5422C6.86066 29.2551 7.25014 29.0938 7.65625 29.0938H12.5134C12.9195 29.0938 13.309 29.2551 13.5961 29.5422C13.8833 29.8294 14.0446 30.2189 14.0446 30.625C14.0446 31.0311 13.8833 31.4206 13.5961 31.7078C13.309 31.9949 12.9195 32.1562 12.5134 32.1562H7.65625C7.25014 32.1562 6.86066 31.9949 6.57349 31.7078C6.28633 31.4206 6.125 31.0311 6.125 30.625ZM35.2188 30.625C35.2188 30.2189 35.3801 29.8294 35.6672 29.5422C35.9544 29.2551 36.3439 29.0938 36.75 29.0938H41.3438C41.7499 29.0938 42.1393 29.2551 42.4265 29.5422C42.7137 29.8294 42.875 30.2189 42.875 30.625C42.875 31.0311 42.7137 31.4206 42.4265 31.7078C42.1393 31.9949 41.7499 32.1562 41.3438 32.1562H36.75C36.3439 32.1562 35.9544 31.9949 35.6672 31.7078C35.3801 31.4206 35.2188 31.0311 35.2188 30.625ZM37.5279 17.6216C37.3157 17.4106 37.0319 17.2871 36.7329 17.2758C36.4338 17.2644 36.1415 17.366 35.9139 17.5604L23.1127 28.5119C22.8144 28.7632 22.5722 29.0743 22.4018 29.4251C22.2313 29.7759 22.1364 30.1585 22.1231 30.5483C22.1098 30.9381 22.1785 31.3263 22.3247 31.6879C22.471 32.0495 22.6914 32.3763 22.9719 32.6473C23.2524 32.9183 23.5866 33.1274 23.953 33.2611C24.3194 33.3948 24.7097 33.4501 25.0988 33.4235C25.4879 33.3968 25.8671 33.2888 26.2118 33.1064C26.5566 32.924 26.8592 32.6712 27.1001 32.3645L37.6167 19.2049C37.7997 18.9759 37.8918 18.6875 37.8754 18.3948C37.859 18.1021 37.7353 17.8257 37.5279 17.6186V17.6216Z" fill="white"/>
<path fill-rule="evenodd" clip-rule="evenodd" d="M1.62552e-05 30.625C0.0032177 27.0596 0.784546 23.5379 2.28946 20.3057C3.79436 17.0735 5.98659 14.2087 8.71309 11.9114C11.4396 9.61397 14.6347 7.93934 18.0752 7.00438C21.5158 6.06941 25.119 5.89665 28.6333 6.49814C32.1475 7.09964 35.4882 8.4609 38.422 10.4869C41.3558 12.5129 43.812 15.1548 45.6193 18.2282C47.4265 21.3015 48.5412 24.7323 48.8855 28.281C49.2298 31.8297 48.7954 35.4108 47.6127 38.7743C46.2591 42.6116 41.9624 43.6804 38.6335 42.6024C34.6338 41.307 29.0172 39.8125 24.5 39.8125C19.9859 39.8125 14.3631 41.307 10.3666 42.6024C7.03764 43.6804 2.74095 42.6116 1.38733 38.7743C0.465951 36.1562 -0.00318323 33.4004 1.62552e-05 30.625ZM24.5 9.18747C21.0712 9.18659 17.6921 10.0082 14.6465 11.5834C11.6008 13.1585 8.97743 15.4413 6.9965 18.24C5.01557 21.0388 3.73487 24.2719 3.26191 27.6679C2.78894 31.064 3.1375 34.524 4.27833 37.7575C4.90002 39.5185 7.10502 40.4403 9.42333 39.6869C13.4658 38.3823 19.4714 36.75 24.5 36.75C29.5286 36.75 35.5373 38.3792 39.5767 39.69C41.895 40.4403 44.1 39.5185 44.7217 37.7575C45.8625 34.524 46.2111 31.064 45.7381 27.6679C45.2652 24.2719 43.9845 21.0388 42.0035 18.24C40.0226 15.4413 37.3992 13.1585 34.3536 11.5834C31.3079 10.0082 27.9289 9.18659 24.5 9.18747Z" fill="white"/>
</g>
<defs>
<clipPath id="clip0_2_72">
<rect width="49" height="49" fill="white"/>
</clipPath>
</defs>
</svg>
