<svg width="72" height="48" viewBox="0 0 72 48" fill="none" xmlns="http://www.w3.org/2000/svg">
<g id="Master" clip-path="url(#clip0_2_908)">
<path id="Vector" d="M63.5222 0H8.47784C3.79566 0 0 3.81052 0 8.51103V39.489C0 44.1895 3.79566 48 8.47784 48H63.5222C68.2043 48 72 44.1895 72 39.489V8.51103C72 3.81052 68.2043 0 63.5222 0Z" fill="white"/>
<g id="Group">
<path id="Vector_2" d="M41.6655 14.5656H31.1655V33.4343H41.6655V14.5656Z" fill="#FF5F00"/>
<path id="Vector_3" d="M31.8324 24C31.8307 22.1828 32.2425 20.389 33.0366 18.7545C33.8306 17.12 34.9861 15.6875 36.4157 14.5656C34.6454 13.1742 32.5194 12.3088 30.2806 12.0685C28.0418 11.8282 25.7806 12.2227 23.7554 13.2068C21.7302 14.1908 20.0227 15.7249 18.8281 17.6335C17.6335 19.5421 17 21.7484 17 24C17 26.2516 17.6335 28.4579 18.8281 30.3665C20.0227 32.2751 21.7302 33.8092 23.7554 34.7932C25.7806 35.7773 28.0418 36.1718 30.2806 35.9315C32.5194 35.6912 34.6454 34.8258 36.4157 33.4344C34.9862 32.3125 33.8306 30.88 33.0366 29.2455C32.2425 27.611 31.8307 25.8172 31.8324 24Z" fill="#EB001B"/>
<path id="Vector_4" d="M55.8306 24C55.8307 26.2516 55.1973 28.4578 54.0027 30.3665C52.8082 32.2751 51.1008 33.8091 49.0756 34.7932C47.0504 35.7773 44.7892 36.1718 42.5505 35.9315C40.3117 35.6912 38.1857 34.8259 36.4155 33.4344C37.8438 32.3113 38.9984 30.8787 39.7923 29.2444C40.5863 27.6101 40.9988 25.8169 40.9988 24C40.9988 22.1831 40.5863 20.3899 39.7923 18.7556C38.9984 17.1213 37.8438 15.6887 36.4155 14.5656C38.1857 13.1741 40.3117 12.3088 42.5505 12.0685C44.7892 11.8282 47.0504 12.2227 49.0756 13.2068C51.1008 14.1909 52.8082 15.7249 54.0027 17.6335C55.1973 19.5422 55.8307 21.7484 55.8306 24Z" fill="#F79E1B"/>
<path id="Vector_5" d="M54.6858 31.4359V31.0496H54.8415V30.9709H54.4448V31.0496H54.6007V31.4359H54.6858ZM55.4559 31.4359V30.9701H55.3343L55.1945 31.2905L55.0546 30.9701H54.9329V31.4359H55.0188V31.0845L55.1499 31.3874H55.239L55.3701 31.0838V31.4359H55.4559Z" fill="#F79E1B"/>
</g>
</g>
<defs>
<clipPath id="clip0_2_908">
<rect width="72" height="48" fill="white"/>
</clipPath>
</defs>
</svg>
