<svg width="72" height="48" viewBox="0 0 72 48" fill="none" xmlns="http://www.w3.org/2000/svg">
<g clip-path="url(#clip0_2_915)">
<path d="M63.5222 0H8.47784C3.79566 0 0 3.81052 0 8.51103V39.489C0 44.1895 3.79566 48 8.47784 48H63.5222C68.2043 48 72 44.1895 72 39.489V8.51103C72 3.81052 68.2043 0 63.5222 0Z" fill="white"/>
<g clip-path="url(#clip1_2_915)">
<path d="M41.2427 30.924H38.9088C38.7495 30.924 38.614 31.0411 38.589 31.1999L37.6459 37.2455C37.6275 37.3649 37.7186 37.4722 37.8378 37.4722H39.0356C39.1473 37.4722 39.2427 37.3901 39.26 37.2784L39.5278 35.5644C39.5527 35.4056 39.6882 35.2884 39.8476 35.2884H40.5858C42.1229 35.2884 43.0096 34.5371 43.2416 33.0476C43.3457 32.3959 43.2459 31.8844 42.9435 31.5263C42.6118 31.132 42.0232 30.924 41.2427 30.924ZM41.5115 33.1319C41.3836 33.9785 40.744 33.9785 40.1251 33.9785H39.7728L40.0199 32.3981C40.0351 32.3028 40.1164 32.2327 40.2118 32.2327H40.3733C40.795 32.2327 41.1928 32.2327 41.3977 32.4748C41.5202 32.6193 41.557 32.8351 41.5115 33.1319Z" fill="#009ADE"/>
<path d="M24.6002 30.924H22.2663C22.107 30.924 21.9715 31.0411 21.9466 31.1999L21.0024 37.2455C20.9839 37.3649 21.075 37.4722 21.1942 37.4722H22.3086C22.468 37.4722 22.6035 37.355 22.6284 37.1962L22.8831 35.5655C22.9081 35.4066 23.0436 35.2895 23.2029 35.2895H23.9411C25.4783 35.2895 26.365 34.5381 26.597 33.0487C26.701 32.397 26.6013 31.8855 26.2989 31.5274C25.9671 31.1331 25.3785 30.925 24.598 30.925L24.6002 30.924ZM24.869 33.1319C24.7411 33.9785 24.1016 33.9785 23.4826 33.9785H23.1303L23.3774 32.3981C23.3926 32.3028 23.4739 32.2327 23.5693 32.2327H23.7308C24.1525 32.2327 24.5503 32.2327 24.7552 32.4748C24.8777 32.6193 24.9146 32.8351 24.869 33.1319Z" fill="#002F87"/>
<path d="M31.5747 33.1045H30.4571C30.3617 33.1045 30.2793 33.1746 30.2652 33.2699L30.2164 33.5853L30.1384 33.4714C29.8966 33.1166 29.3568 32.9983 28.818 32.9983C27.5834 32.9983 26.5286 33.9435 26.3237 35.2687C26.2164 35.9302 26.3682 36.5621 26.74 37.0035C27.0815 37.4087 27.5671 37.5774 28.147 37.5774C29.1422 37.5774 29.6939 36.9312 29.6939 36.9312L29.6441 37.2455C29.6256 37.3649 29.7167 37.4733 29.8359 37.4733H30.8419C31.0012 37.4733 31.1367 37.3561 31.1617 37.1973L31.7655 33.3323C31.7839 33.213 31.6928 33.1056 31.5736 33.1056L31.5747 33.1045ZM30.017 35.3015C29.9086 35.9466 29.4023 36.3792 28.7563 36.3792C28.4321 36.3792 28.1731 36.2741 28.0061 36.0747C27.8413 35.8765 27.7785 35.595 27.8305 35.2818C27.9313 34.6422 28.4462 34.1954 29.0825 34.1954C29.4002 34.1954 29.6571 34.3016 29.8273 34.5031C29.9985 34.7057 30.0657 34.9894 30.017 35.3015Z" fill="#002F87"/>
<path d="M48.2182 33.1045H47.1006C47.0052 33.1045 46.9228 33.1746 46.9088 33.2699L46.86 33.5853L46.7819 33.4714C46.5402 33.1166 46.0004 32.9983 45.4616 32.9983C44.2269 32.9983 43.1722 33.9435 42.9673 35.2687C42.86 35.9302 43.0117 36.5621 43.3836 37.0035C43.725 37.4087 44.2106 37.5774 44.7906 37.5774C45.7857 37.5774 46.3375 36.9312 46.3375 36.9312L46.2876 37.2455C46.2692 37.3649 46.3602 37.4733 46.4795 37.4733H47.4854C47.6448 37.4733 47.7803 37.3561 47.8052 37.1973L48.409 33.3323C48.4275 33.213 48.3364 33.1056 48.2172 33.1056L48.2182 33.1045ZM46.6605 35.3015C46.5521 35.9466 46.0459 36.3792 45.3998 36.3792C45.0757 36.3792 44.8166 36.2741 44.6497 36.0747C44.4849 35.8765 44.422 35.595 44.4741 35.2818C44.5749 34.6422 45.0898 34.1954 45.7261 34.1954C46.0437 34.1954 46.3006 34.3016 46.4708 34.5031C46.6421 34.7057 46.7093 34.9894 46.6605 35.3015Z" fill="#009ADE"/>
<path d="M37.5257 33.1045H36.4026C36.2953 33.1045 36.1945 33.1582 36.1349 33.248L34.5858 35.5534L33.9289 33.3378C33.8877 33.1987 33.762 33.1045 33.6178 33.1045H32.5143C32.3809 33.1045 32.2866 33.237 32.33 33.3641L33.5669 37.0319L32.4037 38.6901C32.3127 38.8204 32.4037 39 32.562 39H33.6839C33.7902 39 33.8899 38.9474 33.9506 38.8587L37.6861 33.4122C37.775 33.2819 37.6828 33.1034 37.5267 33.1034L37.5257 33.1045Z" fill="#002F87"/>
<path d="M49.5353 31.0904L48.5771 37.2466C48.5587 37.366 48.6497 37.4733 48.769 37.4733H49.7326C49.892 37.4733 50.0275 37.3561 50.0524 37.1973L50.9966 31.1518C51.015 31.0324 50.924 30.925 50.8047 30.925H49.7272C49.6318 30.925 49.5494 30.9951 49.5353 31.0915V31.0904Z" fill="#009ADE"/>
<path d="M43.2754 13.9701C43.5117 12.4488 43.2732 11.4127 42.4591 10.4752C41.5627 9.44246 39.9421 9 37.8683 9H31.851C31.4272 9 31.0662 9.31104 31.0001 9.73379L28.4938 25.7874C28.444 26.1039 28.6868 26.3908 29.0044 26.3908H32.7193L32.4624 28.0337C32.419 28.3107 32.6315 28.5616 32.909 28.5616H36.0407C36.4114 28.5616 36.7269 28.2888 36.7843 27.9187L36.8147 27.7577L37.4044 23.9781L37.4423 23.7689C37.4998 23.3987 37.8152 23.126 38.186 23.126H38.6543C41.6873 23.126 44.0635 21.8808 44.7572 18.2797C45.0477 16.7749 44.8971 15.5187 44.1307 14.636C43.8987 14.3687 43.6103 14.1475 43.2732 13.9679" fill="#009ADE"/>
<path d="M43.2754 13.9701C43.5117 12.4488 43.2732 11.4127 42.4591 10.4752C41.5627 9.44246 39.9421 9 37.8683 9H31.851C31.4272 9 31.0662 9.31104 31.0001 9.73379L28.4938 25.7874C28.444 26.1039 28.6868 26.3908 29.0044 26.3908H32.7193L33.6526 20.4121L33.6234 20.5994C33.6895 20.1766 34.0472 19.8656 34.4711 19.8656H36.2369C39.7047 19.8656 42.4201 18.4418 43.2136 14.326C43.2374 14.2044 43.257 14.0862 43.2754 13.9701Z" fill="#002169"/>
<path d="M34.6564 13.9898C34.6965 13.7357 34.858 13.5276 35.0748 13.4214C35.1735 13.3732 35.2841 13.3469 35.4001 13.3469H40.1166C40.6759 13.3469 41.1963 13.3841 41.6732 13.4619C41.8098 13.4838 41.9421 13.509 42.07 13.5385C42.199 13.567 42.3236 13.5999 42.444 13.6349C42.5047 13.6524 42.5643 13.6711 42.6228 13.6908C42.857 13.7696 43.0748 13.8616 43.2754 13.969C43.5117 12.4477 43.2732 11.4116 42.4591 10.4741C41.5627 9.44137 39.9421 8.9989 37.8683 8.9989H31.851C31.4272 8.9989 31.0662 9.30994 31.0001 9.73269L28.4938 25.7863C28.444 26.1028 28.6868 26.3897 29.0044 26.3897H32.7193L33.6526 20.411L34.6553 13.9887L34.6564 13.9898Z" fill="#002F87"/>
</g>
</g>
<defs>
<clipPath id="clip0_2_915">
<rect width="72" height="48" fill="white"/>
</clipPath>
<clipPath id="clip1_2_915">
<rect width="30" height="30" fill="white" transform="translate(21 9)"/>
</clipPath>
</defs>
</svg>
