<svg width="47" height="47" viewBox="0 0 47 47" fill="none" xmlns="http://www.w3.org/2000/svg">
<path d="M39.9363 23.7898C39.389 20.3983 37.8057 17.2592 35.4037 14.8031C33.0017 12.347 29.8986 10.6943 26.5201 10.0717C23.1416 9.44899 19.6532 9.8869 16.5335 11.3253C13.4137 12.7637 10.8154 15.1321 9.09498 18.1057C7.37456 21.0793 6.61632 24.5123 6.92426 27.9339C7.2322 31.3554 8.59125 34.5979 10.815 37.2165C13.0387 39.8351 16.0181 41.7016 19.3446 42.5598C22.671 43.418 26.1816 43.226 29.3946 42.0101C29.1608 41.3099 29.1593 40.5529 29.3904 39.8517C29.6216 39.1506 30.0729 38.5429 30.6773 38.1189C28.1989 39.6411 25.3005 40.3354 22.4014 40.1016C19.5023 39.8678 16.7527 38.718 14.5502 36.8183C12.3477 34.9187 10.8064 32.3678 10.1494 29.5345C9.49232 26.7011 9.75348 23.7322 10.8951 21.0571C12.0367 18.382 13.9996 16.1393 16.4999 14.6533C19.0002 13.1674 21.9083 12.5152 24.8037 12.7911C27.6992 13.067 30.4318 14.2567 32.6064 16.1882C34.7811 18.1196 36.2851 20.6926 36.9009 23.5352C37.9198 23.446 38.9465 23.5321 39.9363 23.7898ZM24.9551 16.9356C24.9043 16.567 24.7156 16.2313 24.4269 15.9965C24.1382 15.7617 23.7712 15.6451 23.3999 15.6705C23.0286 15.6959 22.6808 15.8612 22.4268 16.1331C22.1727 16.4051 22.0314 16.7633 22.0313 17.1354V25.9479L22.045 26.1476C22.0957 26.5163 22.2845 26.852 22.5731 27.0868C22.8618 27.3216 23.2289 27.4381 23.6001 27.4128C23.9714 27.3874 24.3192 27.2221 24.5732 26.9502C24.8273 26.6782 24.9687 26.32 24.9688 25.9479V17.1354L24.9551 16.9356ZM37.6588 10.1324L37.4962 10.0149C37.1806 9.81985 36.8029 9.75149 36.4389 9.82355C36.0749 9.8956 35.7517 10.1027 35.5342 10.4033C35.3167 10.7039 35.221 11.0757 35.2664 11.4439C35.3118 11.8122 35.4948 12.1496 35.7788 12.3884L38.0485 14.2782L38.2091 14.3957C38.5249 14.5941 38.9044 14.665 39.2706 14.5938C39.6368 14.5227 39.9621 14.3149 40.1807 14.0126C40.3992 13.7103 40.4946 13.3362 40.4474 12.9662C40.4002 12.5962 40.214 12.258 39.9265 12.0202L37.6588 10.1324ZM29.375 6.36456C29.375 5.97503 29.2203 5.60144 28.9448 5.326C28.6694 5.05056 28.2958 4.89581 27.9063 4.89581H19.0938L18.894 4.90952C18.5254 4.96024 18.1897 5.14901 17.9549 5.43769C17.72 5.72636 17.6035 6.09341 17.6289 6.46467C17.6542 6.83594 17.8196 7.18373 18.0915 7.43778C18.3634 7.69183 18.7216 7.8332 19.0938 7.83331H27.9063L28.106 7.8196C28.4576 7.77133 28.7799 7.59737 29.0132 7.32989C29.2465 7.0624 29.375 6.71949 29.375 6.36456ZM35.7396 35.25C35.7396 34.8604 35.8943 34.4869 36.1698 34.2114C36.4452 33.936 36.8188 33.7812 37.2083 33.7812C38.2404 33.7812 39.2803 33.4189 40.0362 32.8549C40.7999 32.2831 41.125 31.6349 41.125 31.0885C41.125 29.8156 39.8227 28.3958 37.6979 28.3958C36.6874 28.3958 35.7141 28.7679 34.9465 29.1909C34.5365 29.4188 34.1472 29.6823 33.7832 29.9781L33.7773 29.984C33.4848 30.2308 33.1074 30.3537 32.7256 30.3264C32.3438 30.2991 31.9877 30.1239 31.7332 29.838C31.4787 29.5521 31.3459 29.1781 31.363 28.7957C31.3801 28.4133 31.5459 28.0527 31.8249 27.7907V27.7868L31.8308 27.7848L31.8406 27.775L31.8699 27.7496C32.0119 27.6259 32.1596 27.5089 32.3125 27.399C32.6023 27.1836 33.0156 26.9036 33.5267 26.6216C34.5294 26.0654 36.004 25.4583 37.6979 25.4583C40.9801 25.4583 44.0625 27.7652 44.0625 31.0885C44.0625 32.8412 43.0442 34.2728 41.7928 35.2089L41.736 35.25L41.7948 35.2911C43.0461 36.2272 44.0625 37.6607 44.0625 39.4114C44.0625 42.7367 40.9801 45.0416 37.6979 45.0416C36.004 45.0416 34.5294 44.4346 33.5267 43.8784C32.9411 43.5539 32.3865 43.1763 31.8699 42.7504L31.8406 42.7249L31.8308 42.7151L31.8269 42.7132L31.8229 42.7093C31.5321 42.4501 31.3561 42.086 31.3337 41.6971C31.3113 41.3081 31.4443 40.9263 31.7035 40.6354C31.9626 40.3445 32.3267 40.1686 32.7157 40.1462C33.1046 40.1237 33.4865 40.2568 33.7773 40.5159L33.7832 40.5218L33.8224 40.5531C33.901 40.6173 33.9814 40.6793 34.0633 40.7392C34.2669 40.8939 34.5724 41.1015 34.9465 41.3071C35.7141 41.7321 36.6894 42.1041 37.6979 42.1041C39.8227 42.1041 41.125 40.6844 41.125 39.4114C41.125 38.8631 40.8019 38.2169 40.0362 37.645C39.2138 37.0479 38.2247 36.7239 37.2083 36.7187C36.8188 36.7187 36.4452 36.564 36.1698 36.2885C35.8943 36.0131 35.7396 35.6395 35.7396 35.25Z" fill="white"/>
</svg>
