<svg width="24" height="24" viewBox="0 0 24 24" fill="none" xmlns="http://www.w3.org/2000/svg">
<mask id="mask0_176_670" style="mask-type:alpha" maskUnits="userSpaceOnUse" x="0" y="0" width="24" height="24">
<rect width="24" height="24" fill="#D9D9D9"/>
</mask>
<g mask="url(#mask0_176_670)">
<path d="M10.0255 22.7084C9.64004 23.3109 8.7652 23.3257 8.35954 22.7367L0.992694 12.0403C0.587036 11.4513 0.912834 10.6392 1.6131 10.4939L17.9985 7.09401C18.8654 6.91415 19.5212 7.86634 19.044 8.61208L10.0255 22.7084ZM9.15932 20.3719L14.8069 11.53C15.283 10.7845 14.6279 9.83332 13.7617 10.0124L3.48721 12.1362L5.02958 14.3757C5.28986 14.7536 5.77393 14.9059 6.20368 14.745L7.51849 14.2529C8.49348 13.888 9.3076 15.0701 8.61904 15.8509L7.6905 16.9038C7.38699 17.248 7.35667 17.7546 7.61695 18.1325L9.15932 20.3719Z" fill="white"/>
</g>
</svg>
