<?xml version="1.0" encoding="UTF-8"?>
<svg version="1.1" viewBox="0 0 1600 1600" width="1280" height="1280" xmlns="http://www.w3.org/2000/svg">
<path transform="translate(1166,6)" d="m0 0c6.74-0.08 13.5-0.13 20.2-0.16 2.29-0.02 4.58-0.04 6.86-0.07 24.2-0.27 24.2-0.27 34.9 3.23 1.19 0.34 2.37 0.68 3.59 1.04 14.6 5.15 28.3 12.4 42.1 19.3 4.29 2.16 8.62 4.06 13.1 5.77 6.39 2.46 12.3 5.41 18.2 8.86 3.41 1.82 6.83 3.32 10.4 4.69 5.12 2.01 9.92 4.55 14.7 7.18 4.29 2.33 8.61 4.51 13 6.63 19.5 9.77 40 26.2 50.7 45.6 1.22 2.11 2.59 4.06 4 6.05 3.78 5.62 6.44 11.7 9.12 17.9 0.38 0.87 0.77 1.74 1.16 2.63 2.25 5.33 3.8 10.7 5.12 16.3 0.48 2.04 0.99 4.08 1.54 6.11 4.87 18.2 4.97 39.6 0.18 58-0.43 1.79-0.43 1.79-0.87 3.61-2.24 9.26-4.72 17.8-9.09 26.3-1.82 3.62-3.42 7.35-5.04 11.1-4.88 11-9.92 22-15 33-0.28 0.61-0.56 1.22-0.85 1.85-3.51 7.58-7.08 15.1-10.9 22.6-1.22 2.5-2.24 5.01-3.26 7.59-0.93 2.05-1.86 4.09-2.81 6.12-1.96 4.22-3.9 8.45-5.81 12.7-1.41 3.1-2.84 6.16-4.38 9.19-3.5 6.92-6.61 14-9.56 21.2-1.62 3.92-3.34 7.73-5.28 11.5-3.74 7.45-7.16 15.1-10.6 22.7-2.03 4.5-4.13 8.97-6.25 13.4-3.69 7.8-7.27 15.7-10.8 23.5-1.79 3.97-3.61 7.92-5.58 11.8s-3.71 7.85-5.42 11.8c-5.75 13.3-5.75 13.3-9.06 18.4-2.06 3.66-3.21 7.56-4.44 11.6h-3c-0.02 0.93-0.04 1.86-0.06 2.81-0.82 5.86-4.65 10.4-7.94 15.2-0.5 0.75-0.99 1.49-1.5 2.26-1.11 1.63-2.29 3.19-3.5 4.74h-2c-0.4 0.96-0.4 0.96-0.81 1.94-1.19 2.06-1.19 2.06-4.19 3.06l-2 4c-0.99 0.33-1.98 0.66-3 1l-2 4c-0.99 0.33-1.98 0.66-3 1l-1 3c-10.4 7.8-24.2 15.3-36.8 18.4-1.53 0.39-3.06 0.82-4.57 1.3-8.43 2.46-16.4 2.65-25.1 2.53-2.36-0.03-4.71-0.04-7.06-0.05-1.52 0-3.03-0.02-4.55-0.03-0.69 0-1.39-0.01-2.1-0.01-4.37-0.06-8.52-0.49-12.8-1.19-0.17 1.04-0.17 1.04-0.34 2.1-0.75 3.31-1.93 6.17-3.28 9.28-0.4 0.9-0.4 0.9-0.8 1.83-4.87 11.1-10.1 22-15.6 32.8-1.31 2.61-2.61 5.22-3.91 7.83-0.88 1.75-1.76 3.49-2.65 5.23-1.51 3.08-2.9 6.2-4.28 9.34-3.74 8.39-7.66 16.7-11.6 25-1.87 4-3.71 8.01-5.54 12-2.91 6.31-6 12.5-9.13 18.7-0.32 0.62-0.63 1.25-0.95 1.89-0.68 1.34-1.36 2.67-2.04 4.01-2.24 4.43-4.16 8.88-5.91 13.5-1.03 2.39-1.03 2.39-2.5 4.83-1.62 2.72-2.75 5.42-3.91 8.37-1.81 4.46-3.86 8.34-6.5 12.3-1.49 2.46-2.38 4.98-3.32 7.68-1.66 4.5-3.78 8.82-5.8 13.2-0.59 1.28-1.18 2.55-1.77 3.83-0.62 1.33-1.24 2.65-1.85 3.98-0.29 0.62-0.58 1.25-0.88 1.89-1.3 2.78-2.62 5.54-3.99 8.28-1.74 3.48-3.38 6.99-5.01 10.5-2.1 4.54-4.26 9.03-6.5 13.5-1.13 2.41-2.26 4.83-3.38 7.25-2.04 4.41-4.11 8.79-6.31 13.1-1.86 3.68-3.58 7.4-5.23 11.2-3.75 8.49-7.74 16.9-11.7 25.2-0.38 0.79-0.75 1.58-1.13 2.39-1.75 3.68-3.51 7.34-5.34 11-1.69 3.36-3.29 6.76-4.85 10.2-1.78 3.89-3.61 7.74-5.56 11.6-2.64 5.21-4.91 10.6-7.17 16-1.04 2.42-2.12 4.76-3.33 7.1-3.86 7.58-7.42 15.3-11 23 4.34 3.08 8.57 5.95 13.5 8 12.2 5.19 23.4 14.8 30.5 26v2h2c1.16 2.37 2.3 4.75 3.44 7.12 0.32 0.67 0.65 1.34 0.98 2.02 1.9 3.99 2.92 7.46 3.58 11.9l2 3c0.32 1.96 0.32 1.96 0.42 4.21 0.03 0.85 0.07 1.7 0.11 2.58 0.03 0.93 0.07 1.85 0.1 2.81 0.04 0.97 0.07 1.95 0.11 2.96 0.37 10.5 0.33 21 0.24 31.5l-0.06 10.5c-0.04 9.9-0.09 19.8-0.17 29.7-0.05 6.1-0.07 12.2-0.09 18.3-0.01 2.32-0.03 4.63-0.05 6.94-0.04 3.22-0.04 6.43-0.05 9.64-0.01 0.95-0.03 1.91-0.05 2.89-0.03 5.14-0.03 5.14 2.35 9.55 2.51 1.75 5.03 3.45 7.64 5.05 7.04 4.34 7.04 4.34 9.5 6.44v2c0.6 0.27 1.19 0.55 1.81 0.83 10.7 5.72 19.4 20.8 25.2 31.2 0.4 0.72 0.81 1.43 1.23 2.17 4.99 9.37 9.18 20 9.53 30.7 0.14 2.2 0.14 2.2 1.16 4.28 1.35 3.59 1.95 7.21 2.55 11 0.13 0.77 0.26 1.55 0.39 2.35 0.41 2.47 0.8 4.94 1.2 7.41 0.27 1.65 0.54 3.3 0.82 4.95 1.1 6.72 2.17 13.4 3.12 20.2 0.33 2.11 0.66 4.21 1 6.31 0.25 1.54 0.25 1.54 0.5 3.12 0.38 2.54 0.38 2.54 1.5 4.57 2.97 0.6 5.88 1.08 8.88 1.5 1.74 0.26 3.48 0.51 5.22 0.77 0.85 0.13 1.69 0.25 2.56 0.38 3.66 0.55 7.29 1.23 10.9 1.92 1.83 0.33 3.68 0.61 5.53 0.87 12.3 1.78 24.6 3.98 36.8 6.7 7.33 1.59 14.7 2.83 22.1 4.15 1.15 0.2 2.29 0.41 3.47 0.62 1.55 0.28 1.55 0.28 3.14 0.57 2.37 0.52 2.37 0.52 3.37 1.52 2.62 0.5 5.24 0.95 7.88 1.38 5.75 0.97 11.3 2.11 16.9 3.74 4.45 1.23 8.95 2.26 13.4 3.32 11.1 2.62 22.1 5.49 33.1 8.68 4.87 1.42 9.7 2.56 14.7 3.39 1.99 0.49 1.99 0.49 4.99 2.49 2.77 0.73 5.52 1.39 8.31 2 5.01 1.11 9.84 2.3 14.7 4 7.05 2.23 14.1 4.36 21.3 6.19 2.93 0.87 5.74 1.93 8.59 3.01 3.56 1.33 7.16 2.49 10.8 3.68 6.83 2.25 13.6 4.59 20.4 7.04 3.94 1.41 7.9 2.72 11.9 4.01 5.68 1.86 11.2 3.87 16.8 6.13 4.5 1.78 9.11 3.22 13.7 4.69 0.77 0.24 1.54 0.49 2.34 0.75 0.68 0.22 1.37 0.43 2.07 0.66 2.24 0.84 2.24 0.84 5.01 2.24 3.69 1.82 7.43 3.25 11.3 4.66 17.2 6.35 32.2 13.5 42.9 28.9 0.43 0.55 0.86 1.11 1.3 1.68 5.46 7.09 8.88 15.1 10.2 23.9 0.39 2.44 0.39 2.44 1.45 4.82 1.42 5.03 1.48 9.91 1.63 15.1 0.03 1.18 0.07 2.35 0.11 3.55 0.42 14.7 0.42 29.5 0.4 44.2-0.01 4.05 0 8.11 0 12.2 0.01 3.19 0.01 6.39 0 9.58 0 1.49 0 2.99 0.01 4.48 0.01 7.85-0.13 15.7-0.55 23.5-0.03 0.68-0.06 1.36-0.1 2.05-0.98 16.3-7.03 31.4-17.5 43.9-0.76 1.01-1.53 2.02-2.31 3.06-10.1 11.1-23.1 17-38 18.1-6.64 0.28-13.3 0.23-19.9 0.2-2.26 0.01-4.52 0.01-6.78 0.02-6.21 0.01-12.4 0-18.6-0.01-6.06-0.01-12.1 0-18.2 0-12.5 0.02-25.1 0.01-37.6 0-12.7-0.01-25.4-0.01-38.1 0h-2.43-9.81c-30.4 0.01-60.9 0.01-91.3 0-29.3-0.01-58.6-0.02-88-0.02h-5.53-22.2c-20.7 0.01-41.4 0.01-62.1 0h-2.86c-30 0-60 0-90.1-0.01h-2.95c-15.8-0.01-31.6-0.01-47.4-0.01-62.7-0.02-125-0.03-188-0.02h-11.9-2.97-32.6-2.95c-52.5 0-105 0-158-0.01h-5.56-2.77-5.54-13.8c-20.2-0.01-40.4-0.01-60.5-0.01h-2.75-13.7c-33.1 0.01-66.2 0-99.2-0.01-3.26-0.01-6.52-0.01-9.77-0.01h-2.43c-12.7-0.01-25.3 0-38 0-12.4 0-24.9 0-37.3-0.01-6.66-0.01-13.3-0.01-20 0-6.05 0-12.1 0-18.2-0.01h-6.55c-2.95 0.01-5.91 0-8.87-0.01-0.84 0.01-1.68 0.01-2.55 0.02-12.9-0.09-23.9-3.53-34.2-11.3-0.58-0.44-1.15-0.87-1.74-1.32-2.7-2.14-4.09-3.28-5.2-6.62-1.33-0.67-2.66-1.34-4-2-9.6-9.4-15.6-22.7-17-36h-1c-0.05-42.6-0.08-85.2-0.1-128 0-5.03-0.01-10-0.01-15.1v-3.03c-0.01-16.2-0.03-32.4-0.04-48.6-0.02-16.6-0.03-33.2-0.04-49.9 0-10.3-0.01-20.5-0.03-30.8-0.01-7.03-0.01-14.1-0.01-21.1 0-4.06 0-8.11-0.01-12.2-0.01-3.72-0.01-7.44 0-11.2 0-1.98-0.01-3.97-0.02-5.95 0.01-1.18 0.01-2.36 0.01-3.57v-3.08c0.28-3.22 1.14-5.87 2.25-8.89 0.16-0.71 0.33-1.41 0.5-2.14 1.49-6.3 4.38-11.7 7.5-17.3 0.66-1.19 0.66-1.19 1.33-2.4 1.98-3.48 3.74-6.41 6.67-9.16l5-5c0.61-0.65 1.22-1.3 1.85-1.97 2.24-2.11 4.43-3.56 7.09-5.09 0.83-0.49 1.67-0.97 2.52-1.48 0.84-0.48 1.68-0.96 2.54-1.46 1.24-0.78 1.24-0.78 2.51-1.58 8.13-4.64 17.1-4.72 26.2-4.8 0.98-0.01 1.96-0.02 2.98-0.04 6.05 0.04 10.8 0.83 16.3 3.42 1.71 0.78 1.71 0.78 3.46 1.58 6.56 3.27 12.8 6.7 19 10.7 5.46 3.56 11.1 6.87 16.8 10 4.2 2.3 8.28 4.77 12.4 7.25 4.43 2.68 8.84 5.27 13.5 7.5 2.35 1.15 4.63 2.42 6.92 3.69 4.78 2.63 9.62 5.12 14.5 7.56 1.04 0.53 1.04 0.53 2.11 1.06 2.77 1.38 5.45 2.65 8.39 3.63v2c0.51 0.11 1.03 0.22 1.55 0.33 3.29 0.9 6.42 2.15 9.57 3.42 0.67 0.27 1.33 0.53 2.02 0.81 4.69 1.9 9.23 4 13.7 6.36 2.34 1.18 4.71 2.14 7.15 3.08 5.18 2.03 10.3 4.11 15.3 6.5 5.12 2.37 10.3 4 15.7 5.51 2.97 1 5.3 2.34 7.95 3.99 2.69 0.71 2.69 0.71 5 1 0.41-1.11 0.83-2.23 1.25-3.38 0.58-1.54 1.17-3.08 1.75-4.62 0.49-1.31 0.49-1.31 0.98-2.65 0.34-0.88 0.67-1.76 1.02-2.66 0.31-0.82 0.62-1.64 0.94-2.49 1.06-2.2 1.06-2.2 2.52-3.62 2.55-2.62 3.75-6.03 5.23-9.33 2.61-5.7 5.32-11.3 8.31-16.8 5.68-10.5 11-21.2 16-32 2.8-6.04 5.81-11.9 8.99-17.8 2.96-5.48 5.6-11.1 8.21-16.8 2.06-4.43 4.27-8.72 6.72-13 1.17-2.13 2.13-4.3 3.08-6.53 1.62-3.78 3.62-7.1 5.84-10.6 1.74-2.84 2.94-5.8 4.16-8.89 0.35-0.88 0.71-1.76 1.07-2.66 0.98-2.44 1.96-4.89 2.93-7.34h2c0.18-0.68 0.36-1.35 0.55-2.05 0.25-0.89 0.5-1.78 0.76-2.7 0.25-0.88 0.49-1.76 0.74-2.67 0.99-2.68 2.21-4.33 3.95-6.58 2.29-4.34 4.32-8.8 6.38-13.2 2.36-5.09 4.76-10.1 7.3-15.1 1.03-2.04 2.04-4.08 3.04-6.12 0.46-0.93 0.46-0.93 0.92-1.87 0.88-1.78 1.75-3.55 2.61-5.32 1.76-3.31 3.52-6.29 5.75-9.3h2c0.16-0.68 0.33-1.36 0.5-2.06 1.88-3.69 4.34-5.63 7.5-8.26 2.13-1.73 2.13-1.73 4.38-4.12 9.97-9.74 20.9-16 33.6-21.6 1.34-0.59 1.34-0.59 2.71-1.2 5.06-2.14 9.93-3.5 15.4-4.41 1.93-0.2 1.93-0.2 2.93-1.39 5.28-0.84 10.2-1.08 15.6-0.92 1.4 0.03 2.81 0.05 4.22 0.08 2.19 0.04 4.37 0.09 6.56 0.16 2.13 0.07 4.27 0.1 6.4 0.13 1.27 0.04 2.53 0.07 3.83 0.1 4.29-0.7 5.63-2.27 8.38-5.55 0.8-0.78 1.61-1.57 2.44-2.38 2.5-2.56 4.83-5.22 7.13-7.97 1.42-1.64 2.81-3.21 4.43-4.65h2l1-4 4-1 1-4 4-1c0.1-0.6 0.2-1.21 0.3-1.83 0.83-2.58 1.69-3.29 3.82-4.92 4.95-4.01 8.98-8.74 12.8-13.8 2.46-2.91 5.21-5.27 8.1-7.74 4.58-3.8 4.58-3.8 7.86-8.64 1.29-2.42 2.73-3.65 4.85-5.37 2.67-2.26 5.04-4.48 7.25-7.19 2.75-3.34 5.83-6.08 9.12-8.88 2.42-2.08 4.65-4.33 6.88-6.62 10-10 10-10 12.5-12.4 3.22-3.3 6.12-6.85 9.02-10.4 12.1-14.5 28.7-25.2 47.5-28.1 3.65-0.26 7.28-0.29 10.9-0.25 0.96 0.01 1.93 0.01 2.93 0.02 12.8 0.19 22.3 2.72 33.3 9.23 2.19 1.17 4.43 2.05 6.75 2.94 4.16 1.61 7.95 3.54 11.8 5.76 5.59 3.16 11.3 5.98 17.3 8.3 0.25-1.17 0.5-2.33 0.76-3.54 1.09-4.37 2.89-7.99 5.12-11.9 0.72-1.32 1.45-2.63 2.17-3.95 0.34-0.63 0.68-1.25 1.03-1.9 1.47-2.74 2.72-5.57 3.94-8.43 1.21-2.81 2.5-5.57 3.79-8.34 2.68-5.78 5.25-11.6 7.74-17.5 1.19-2.76 2.41-5.4 3.96-7.98 1.88-3.14 3.26-6.44 4.68-9.8 2.69-6.27 5.59-12.4 8.68-18.5 3.11-6.14 6.05-12.3 8.97-18.6 1.94-4.11 3.9-8.19 5.97-12.2 1.98-3.9 3.59-7.89 5.17-12 1.36-3.31 2.97-6.46 4.6-9.65 1.71-3.41 3.32-6.87 4.92-10.3 7.02-15.1 7.02-15.1 10-19.9 1.59-2.74 2.64-5.42 3.69-8.4 0.34-0.98 0.69-1.95 1.04-2.96 0.25-0.74 0.51-1.47 0.77-2.23h2c0.1-0.68 0.2-1.36 0.3-2.05 0.86-3.6 2.34-6.76 3.95-10.1 0.64-1.34 1.28-2.68 1.91-4.02 0.32-0.66 0.63-1.32 0.95-1.99 1.21-2.55 2.36-5.11 3.51-7.68 1.94-4.29 4.02-8.48 6.14-12.7 1.7-3.45 3.28-6.95 4.86-10.5 3.94-8.71 7.96-17.4 12.3-25.9 1.07-2.15 1.07-2.15 1.93-4.42 1.8-4.41 4.03-8.61 6.19-12.8 1.81-3.58 3.44-7.15 4.92-10.9 1.45-2.96 2.94-5.89 4.43-8.83 1.7-3.34 3.2-6.69 4.57-10.2 0.78-1.57 1.57-3.13 2.38-4.69 1.66-3.29 3.14-6.55 4.43-10 2.01-5.18 4.61-9.97 7.26-14.8 2.2-4.05 4.2-8.11 5.99-12.4 1.11-2.48 2.4-4.84 3.69-7.23 2.18-4.27 2.77-7.14 2.25-11.9-0.6-0.27-1.19-0.55-1.81-0.83-6.3-3.37-10.7-9.86-15.1-15.4-0.48-0.6-0.97-1.21-1.48-1.83-2.32-2.97-3.9-5.29-4.64-8.98h-2c-6.06-11.7-11.4-23-14-36h-1c-3.54-23.8-4.17-51.8 9-73 0.65-1.36 1.28-2.74 1.88-4.12 1.9-4.38 3.86-8.72 5.83-13.1 0.86-1.87 1.7-3.74 2.54-5.61 2.42-5.38 4.94-10.7 7.64-15.9 1.16-2.39 2.12-4.82 3.11-7.29 1.09-2.4 2.19-4.8 3.31-7.19 0.47-0.99 0.47-0.99 0.94-2 2.16-4.61 4.41-9.16 6.71-13.7 1.15-2.33 2.18-4.7 3.18-7.1 3.55-8.28 7.51-16.4 11.3-24.6 1.68-3.59 3.33-7.2 4.97-10.8 2.77-6.12 5.64-12.2 8.51-18.3 5.15-10.9 10.2-21.9 15.2-32.9 2.55-5.64 5.16-11.3 7.8-16.9 5.07-10.8 10.1-21.5 14.7-32.5 1.28-2.85 2.77-5.42 4.39-8.09 0.71-1.98 1.39-3.98 2-6h2c0.11-0.69 0.21-1.39 0.32-2.1 0.79-3.36 2.07-6.16 3.56-9.28 2.44-5.14 2.44-5.14 4.68-10.4 1.55-3.49 3.36-6.73 5.24-10 1.09-2 1.98-3.98 2.82-6.09 1.32-2.99 2.15-3.91 4.38-6.12 1.19-1.65 2.36-3.32 3.5-5 2-2.95 3.94-5.53 6.5-8 1.81-2.11 3.6-4.23 5.38-6.36 0.53-0.54 1.07-1.08 1.62-1.64h2c0.21-0.56 0.41-1.11 0.62-1.69 3.16-5.31 9.47-8.94 14.4-12.5 0.6-0.44 1.2-0.87 1.82-1.32 3.29-2.37 6.33-4 10.1-5.49 1.03-0.97 2.03-1.97 3-3 5.85-3.63 12.5-5.78 19-8 1.42-0.52 1.42-0.52 2.88-1.05 3.49-1.06 6.87-1.6 10.5-2.07 1.24-0.17 2.49-0.34 3.77-0.51 0.94-0.12 1.88-0.25 2.85-0.37v-2zm1 1v1h5v-1h-5zm44 0 4 1zm-42 57c-1.43 0.48-2.87 0.93-4.31 1.38-13.2 4.34-24 11.9-32.7 22.6l-4 4c-3.02 3.48-4.97 6.88-7 11-1.16 2.15-2.33 4.3-3.5 6.44-2.4 4.45-4.62 8.86-6.5 13.6-2.69 6.62-5.5 13.1-8.76 19.4-1.33 2.73-2.48 5.49-3.62 8.3-2.32 5.69-5.01 11.1-7.79 16.6-4.02 7.95-7.68 16.1-11.3 24.2-1.92 4.27-4 8.45-6.12 12.6-1.85 3.63-3.64 7.22-5 11.1-1.4 3.8-3.09 7.25-4.92 10.8-3.8 7.57-7.5 15.2-10.5 23.2-1.37 3.55-3.01 6.8-4.88 10.1-2.66 4.73-4.75 9.54-6.77 14.6-1.76 4.15-3.82 8.13-5.88 12.2-1.69 3.47-3.11 7.01-4.45 10.6-0.96 2.25-0.96 2.25-2.35 4.49-2.55 4.37-4.24 9.08-6.09 13.8-0.3 0.73-0.59 1.47-0.9 2.23-0.39 1.01-0.39 1.01-0.8 2.03-0.82 1.71-0.82 1.71-2.82 3.71-0.69 1.56-1.33 3.15-1.94 4.75-1.5 3.87-3.13 7.57-5.06 11.2-0.32 0.64-0.64 1.27-0.96 1.93-0.66 1.31-1.33 2.62-2 3.93-2.02 3.92-3.79 7.82-5.25 12-0.56 1.52-1.16 3.02-1.79 4.51-4.05 9.88-7.37 24.6-3.69 35 0.28 0.78 0.55 1.56 0.84 2.36 0.28 0.77 0.56 1.54 0.85 2.33 0.24 0.69 0.48 1.37 0.73 2.08 0.71 1.99 1.47 3.96 2.27 5.92 0.26 0.65 0.53 1.29 0.8 1.96 2.63 5.84 6.53 10.7 11.2 15h2l1 3c10.4 7.47 22 12.7 33.8 17.6 3.2 1.43 3.2 1.43 5.68 2.92 3.06 1.83 6.24 3.12 9.52 4.51 3.52 1.73 7.01 3.5 10.5 5.28 3.46 1.7 6.96 3.21 10.5 4.72 2.82 1.29 5.63 2.61 8.44 3.94 0.71 0.33 1.42 0.67 2.16 1.01 4.83 2.28 9.63 4.64 14.4 7.05 1.98 1 3.97 2 5.95 3 1.32 0.67 2.64 1.33 3.96 2 4.21 2.11 8.46 4.07 12.8 5.97 4.78 2.13 9.48 4.42 14.2 6.67 10.4 5.12 10.4 5.12 21.4 9.05 0.79 0.23 1.58 0.46 2.39 0.7 15.1 3.92 29.7 0.61 43.4-6.39 8.71-5.55 15.2-12.9 20-22 0.81-1.42 1.62-2.83 2.44-4.25 2.83-5.11 5.19-10.4 7.56-15.8 0.81-1.79 1.62-3.58 2.44-5.38 0.4-0.89 0.81-1.79 1.22-2.71 0.98-2.12 1.97-4.22 2.99-6.32 0.55-1.14 1.1-2.29 1.66-3.47 0.51-1.04 1.03-2.09 1.55-3.17 1.13-2.92 1.38-4.87 1.14-7.95h3c0.21-0.55 0.42-1.1 0.63-1.66 2.39-6.15 5.08-12.1 7.91-18.1 1.6-3.39 3.07-6.79 4.46-10.3 1.13-2.51 2.27-5.01 3.44-7.5 0.3-0.65 0.6-1.3 0.91-1.97 1.69-3.65 3.58-7.08 5.65-10.5 0.66-1.53 1.29-3.07 1.88-4.62 2.16-5.56 4.61-11 7.12-16.4 0.27-0.59 0.54-1.18 0.83-1.79 3.26-7.08 6.56-14.1 10.1-21.1 1.47-3.03 2.67-6.14 3.83-9.3 1.96-5.22 4.35-10.1 7.02-15 3.21-5.86 6-11.8 8.6-18 1.95-4.57 4.11-8.97 6.4-13.4 2.66-5.21 4.29-9.79 5.19-15.6h2c0.23-0.52 0.46-1.04 0.7-1.58 1.1-2.48 2.2-4.95 3.3-7.42 0.37-0.84 0.75-1.69 1.13-2.55 2.33-5.19 4.78-10.3 7.37-15.3 10.9-21.6 16.2-44.9 11.5-69.1l-2-3c-0.59-1.71-1.13-3.45-1.62-5.19-0.27-0.9-0.53-1.8-0.79-2.73-0.2-0.69-0.39-1.37-0.59-2.08h-2c-0.08-0.68-0.16-1.36-0.25-2.06-2.87-11.2-12.7-20.2-20.8-27.9-0.52-0.56-1.03-1.11-1.57-1.68-2.16-1.99-4.65-2.52-7.43-3.32v-2c-0.75-0.35-0.75-0.35-1.52-0.72-16.6-7.82-16.6-7.82-24.7-11.9-5.79-2.94-11.7-5.56-17.7-8.07-2.82-1.2-4.96-2.12-7.15-4.31-1.4-0.61-2.82-1.16-4.25-1.69-5.71-2.2-11.1-4.93-16.6-7.72-2.71-1.35-5.39-2.49-8.2-3.59-1.55-0.75-3.09-1.53-4.62-2.31-7.61-3.83-15.2-7.44-23.3-10-2-0.67-3.89-1.45-5.81-2.31-11.4-4.83-29.4-4.02-40.2 1.62zm165 199 1 2zm-390 92 1 2zm-3 21 1 3zm0 13 1 3zm1 11 1 2zm91 101c-0.42 0.91-0.85 1.82-1.29 2.75-0.41 0.9-0.41 0.9-0.84 1.82l-1.89 4.05c-1.58 3.38-3.16 6.77-4.76 10.2-3.4 7.24-6.7 14.5-9.82 21.9-1.57 3.65-3.31 7-5.4 10.4-0.87 1.66-1.73 3.32-2.56 5-0.42 0.83-0.83 1.65-1.26 2.5-0.78 1.65-1.51 3.33-2.19 5.03-0.96 2.41-2.06 4.67-3.24 6.97-3.8 7.51-7.29 15.2-10.7 22.9-1.82 4.12-3.72 8.22-5.62 12.3-0.3 0.63-0.59 1.26-0.89 1.91-1.32 2.83-2.67 5.64-4.07 8.43-1.62 3.25-3.15 6.54-4.67 9.85-2.56 5.53-5.24 11-8 16.4-2.61 5.16-4.96 10.3-7.01 15.7-1.01 2.5-2.38 4.69-3.8 6.97-0.73 1.71-1.46 3.41-2.18 5.12-1.24 2.84-2.66 5.57-4.07 8.32-2.64 5.2-5.07 10.5-7.37 15.8-2.21 5.12-4.51 10.2-7.06 15.1-2.03 4.06-3.92 8.17-5.82 12.3-1.77 3.82-3.62 7.59-5.5 11.4-1.13 2.41-2.26 4.83-3.38 7.25-2.4 5.18-4.86 10.3-7.48 15.4-1.2 2.46-2.27 4.96-3.34 7.48-1.35 3.13-2.79 6.21-4.24 9.3-0.3 0.65-0.61 1.31-0.93 1.99-2.58 5.5-5.25 10.9-8.07 16.3-1.41 2.93-2.65 5.87-3.87 8.87-2.14 5.19-4.54 10.2-7.08 15.2-1.8 3.58-3.49 7.2-5.17 10.8-2.29 4.95-4.65 9.85-7.12 14.7-2.02 4.1-3.93 8.26-5.82 12.4-1.29 2.79-2.61 5.45-4.23 8.06-1.52 2.12-1.52 2.12-0.96 4.51 0.23 0.56 0.46 1.12 0.69 1.69 0.64 0.12 1.28 0.25 1.94 0.38 1.02 0.3 1.02 0.3 2.06 0.62l1 2c1.62 0.97 1.62 0.97 3.61 1.84 0.73 0.34 1.47 0.68 2.23 1.03 1.16 0.53 1.16 0.53 2.35 1.07 1.51 0.69 3.03 1.39 4.54 2.09 0.74 0.33 1.47 0.67 2.23 1.02 2.71 1.26 5.37 2.6 8.04 3.95 1.2 0.6 2.4 1.2 3.59 1.8 0.63 0.31 1.27 0.63 1.92 0.95 1.36 0.69 2.73 1.37 4.09 2.05 3.44 1.72 6.88 3.44 10.3 5.17 0.62 0.31 1.23 0.62 1.87 0.94 1.68 0.85 3.36 1.7 5.04 2.55 2.23 1.08 4.5 2.1 6.79 3.07 3.64 1.58 6.96 3.46 10.4 5.48 2.09 1.21 2.09 1.21 5.02 0.99 0.39-0.95 0.78-1.9 1.19-2.88 1.29-3.01 2.7-5.94 4.19-8.87 1.75-3.47 3.41-6.95 5-10.5 2.52-5.62 5.28-11.1 8.07-16.6 1.32-2.69 2.44-5.37 3.55-8.16 1.49-3.17 2.99-6.33 4.52-9.47 1.66-3.49 2.94-6.69 3.48-10.5h2c0.21-0.55 0.42-1.1 0.63-1.66 4.22-10.9 9.31-21.3 14.6-31.7 2.58-5.09 5.01-10.2 7.35-15.4 4.3-9.45 8.74-18.8 13.4-28.1 3.29-6.49 6.31-13.1 9.21-19.8 1.81-4.15 3.72-8.21 5.77-12.2 1.82-3.65 3.54-7.35 5.27-11 2.91-6.19 5.9-12.3 9-18.4 2.8-5.52 5.29-11.1 7.61-16.8 1.46-3.5 3.16-6.86 4.89-10.2 1.77-3.54 3.37-7.16 4.99-10.8 1.23-2.67 2.54-5.3 3.88-7.92 3.82-7.09 3.82-7.09 5.38-14.8h2c0.23-0.52 0.46-1.04 0.7-1.58 2.73-6.16 5.5-12.3 8.3-18.4 0.49-1.07 0.97-2.14 1.48-3.24 2.69-5.87 5.46-11.7 8.38-17.4 1.42-2.87 2.7-5.78 3.98-8.71 4.02-9.03 8.3-17.9 12.8-26.8 1.86-3.76 3.6-7.55 5.31-11.4 0.67-1.51 1.36-3.01 2.08-4.5 1.78-3.81 2.33-6.77 2.02-11-0.8-0.29-0.8-0.29-1.62-0.59-6.49-2.48-12.6-5.46-18.8-8.68-3.53-1.82-6.62-3.21-10.6-3.73v-2l-10-3v-2c-1.1-0.39-2.19-0.78-3.32-1.18-5.31-1.99-10.4-4.43-15.5-6.88-0.94-0.45-1.88-0.9-2.85-1.36-3.6-1.72-7.01-3.36-10.3-5.58h-4zm78 37 1 2zm-380 336v2c-0.56 0.23-1.11 0.45-1.69 0.69-2.97 1.68-4.96 3.84-7.31 6.31-10 10-10 10-11.6 11.6-3.79 3.73-7.35 7.58-10.8 11.6-1.58 1.8-1.58 1.8-3.22 3.41-1.48 1.37-1.48 1.37-2.36 3.39-1.49 0.5-1.49 0.5-3 1-0.68 1.33-1.35 2.66-2 4-1.77 1.75-1.77 1.75-3.81 3.44-6.26 4.92-6.26 4.92-10.2 11.6-0.64 0.14-1.28 0.29-1.94 0.44-0.68 0.18-1.36 0.37-2.06 0.56-0.31 0.61-0.61 1.23-0.93 1.86-1.16 2.33-2.22 3.31-4.26 4.89-4.9 4.03-8.93 8.76-12.8 13.8-2.43 2.88-5.17 5.16-8.03 7.6-2.52 2.28-4.61 4.78-6.71 7.46-1.32 1.38-1.32 1.38-4.32 2.38-1.03 1.65-2.03 3.32-3 5-0.99 0.5-0.99 0.5-2 1v3c6.91 2.74 13.8 5.33 20.9 7.39 2.43 0.72 4.73 1.65 7.07 2.61 4.78 1.71 9.6 3.19 14.5 4.5 6.77 1.81 13.3 4.06 19.9 6.5 4.55 1.67 9.12 3.01 13.8 4.19 2.96 0.86 5.8 1.91 8.68 3.01 3.51 1.32 7.06 2.5 10.6 3.68 0.78 0.25 1.56 0.51 2.37 0.78 8.47 2.8 17 5.45 25.5 8.07 8.34 2.58 16.6 5.14 24.6 8.54 2.18 0.88 2.18 0.88 5.48 1.23 3.08 0.44 5.11 1.07 7.94 2.25 6.33 2.65 12.9 4.6 19.4 6.6 3.55 1.08 7.09 2.18 10.6 3.27 1.01 0.32 1.01 0.32 2.05 0.64 3.31 1.04 6.59 2.12 9.83 3.36 3.52 1.34 7.04 2.44 10.7 3.5 3.64 1.08 7.27 2.19 10.9 3.32 0.69 0.21 1.38 0.42 2.09 0.64 4.04 1.27 8.01 2.66 12 4.17 4.38 1.64 8.34 2.4 13 2.75v2c1 0.25 2 0.51 3.04 0.77 1.34 0.35 2.68 0.69 4.02 1.04 0.66 0.17 1.32 0.33 1.99 0.5 4.53 1.19 8.65 2.83 13 4.69 2.03 0.57 4.07 1.09 6.12 1.56 3.81 0.88 7.27 1.95 10.9 3.44 5.45 1.9 11 3.39 16.6 4.9 3.44 1.1 3.44 1.1 6.32 2.57 3.9 1.91 7.81 2.95 12 4.03 5.22 1.37 10.3 2.87 15.3 4.82 3.17 1.2 6.44 2.04 9.7 2.93 2.1 0.75 2.1 0.75 4.1 2.75 1.67 0.04 3.33 0.04 5 0l2 1c0.07-13 0.12-25.9 0.16-38.9 0.01-6.02 0.03-12 0.07-18.1 0.03-5.81 0.05-11.6 0.05-17.4 0.01-2.22 0.02-4.44 0.04-6.66 0.02-3.1 0.02-6.2 0.02-9.31 0.01-0.92 0.02-1.84 0.03-2.79 0.02-4.86 0.02-4.86-1.75-9.28-0.54-0.52-1.07-1.03-1.62-1.56-0.74-0.83-1.47-1.66-2.23-2.52-3.1-2.77-6.29-4.5-10-6.23l-4.29-2.07c-0.74-0.36-1.47-0.71-2.23-1.08-3.65-1.8-7.21-3.74-10.8-5.66-7.03-3.76-14.2-7.19-21.4-10.5-10.6-4.89-21.2-9.93-31.5-15.5-6.51-3.48-13.2-6.64-19.8-9.79-5.37-2.52-10.7-5.11-16-7.78-5.68-2.87-11.4-5.65-17.1-8.38-1.09-0.53-1.09-0.53-2.21-1.06-3.55-1.81-3.55-1.81-7.41-2.44v-2c-0.8-0.29-0.8-0.29-1.62-0.59-7.74-2.96-15-6.66-22.4-10.4-3.32-1.68-6.64-3.34-9.97-5-1.31-0.65-2.62-1.31-3.93-1.96-2.02-1.02-4.04-2.03-6.07-3.04-2.91-1.45-5.82-2.91-8.73-4.38-4.7-2.38-9.44-4.65-14.2-6.87-0.62-0.29-1.23-0.58-1.87-0.87-2.9-1.35-5.79-2.7-8.69-4.04-2.61-1.21-5.21-2.43-7.81-3.65-1.25-0.58-1.25-0.58-2.52-1.17-0.77-0.36-1.55-0.73-2.35-1.1-0.69-0.32-1.38-0.65-2.09-0.98-1.73-0.94-1.73-0.94-3.73-2.94-4.97-1.91-11.5-1.99-16 1zm-204 148c-1.13 0.53-2.27 1.05-3.43 1.6-1.49 0.72-1.49 0.72-3.01 1.46-1.01 0.49-2.02 0.97-3.06 1.48-2.75 1.36-2.75 1.36-4.5 4.46-0.64 0.31-1.28 0.63-1.93 0.95-6.82 3.46-10.8 13.5-14.1 20.1-0.88 1.78-1.8 3.54-2.73 5.3-1.46 2.65-1.46 2.65-1.25 5.69h-3c-0.17 0.64-0.34 1.28-0.52 1.94-0.36 1.3-0.36 1.3-0.73 2.62-0.23 0.85-0.46 1.7-0.7 2.57-1.06 2.88-2.43 5.41-3.99 8.05-1.74 2.99-3.27 6.09-4.81 9.2-0.34 0.68-0.69 1.37-1.04 2.08-2.46 4.96-4.82 9.96-7.15 15-3.43 7.38-7.18 14.6-11 21.8-2.45 4.55-4.76 9.17-7.04 13.8-0.79 1.58-1.58 3.17-2.38 4.75-0.61 1.24-0.61 1.24-1.24 2.5-1 1.99-2 3.98-3 5.96-3.04 6.02-5.99 12-8.82 18.2-2.47 5.35-5.04 10.7-7.68 15.9-0.34 0.67-0.68 1.34-1.02 2.03-1.48 2.94-2.97 5.87-4.48 8.78-0.45 0.89-0.91 1.78-1.38 2.69-0.39 0.75-0.78 1.5-1.19 2.27-1.01 2.03-1.01 2.03-0.81 4.92h-3c-0.11 0.52-0.22 1.05-0.34 1.59-2.16 8.47-6.39 15.7-10.6 23.4-2.08 3.86-3.99 7.8-5.92 11.7-1.19 2.32-1.19 2.32-3.19 5.32 1.21 0.29 1.21 0.29 2.45 0.59 1.07 0.26 2.14 0.52 3.24 0.79 1.05 0.25 2.11 0.51 3.2 0.77 2.82 0.77 5.4 1.75 8.11 2.85 7.68 2.45 15.3 4.37 23.3 5.57 3.19 0.5 6.31 1.2 9.46 1.93 3.46 0.76 6.95 1.38 10.4 2 1.89 0.33 3.77 0.68 5.66 1.04 4.99 0.94 9.92 1.68 15 2.18 2.21 0.28 4.33 0.73 6.51 1.22 6.26 1.33 12.6 1.81 19 2.36 0.85 0.08 1.69 0.16 2.57 0.24 1.15 0.09 1.15 0.09 2.33 0.19 1.79 0.27 1.79 0.27 2.79 1.27 1.39 0.18 2.78 0.29 4.18 0.37 0.89 0.06 1.78 0.12 2.69 0.18 0.97 0.05 1.93 0.11 2.93 0.17 1.48 0.09 1.48 0.09 2.99 0.19 3.18 0.2 6.35 0.4 9.52 0.59 3.16 0.19 6.33 0.39 9.49 0.59 1.97 0.13 3.94 0.25 5.91 0.36 0.9 0.06 1.8 0.12 2.72 0.18 0.79 0.05 1.58 0.09 2.39 0.14 2.18 0.23 2.18 0.23 4.24 0.75 3.24 0.8 6.54 0.52 9.85 0.43 0.79-0.02 1.58-0.04 2.39-0.06 2.59-0.06 5.17-0.13 7.76-0.2 0.89-0.03 1.77-0.05 2.69-0.07 16.8-0.45 33.5-1.29 50.3-2.37 2.81-0.18 5.62-0.35 8.43-0.5 1.1-0.06 1.1-0.06 2.23-0.13 2.05-0.11 4.1-0.23 6.16-0.34 3.03-0.08 3.03-0.08 5.13-1.28 2.38-0.28 4.74-0.52 7.12-0.72 1.06-0.09 1.06-0.09 2.13-0.19 3.01-0.27 6.03-0.53 9.04-0.79 2.19-0.19 4.39-0.39 6.59-0.58 0.68-0.06 1.36-0.12 2.07-0.17 3.64-0.31 3.64-0.31 7.05-1.55 2.6-0.28 5.18-0.52 7.78-0.72 0.77-0.06 1.54-0.12 2.33-0.19 3.3-0.27 6.6-0.53 9.9-0.79 2.4-0.19 4.8-0.38 7.21-0.58 0.75-0.06 1.5-0.12 2.27-0.17 3.88-0.27 3.88-0.27 7.51-1.55 2.29-0.28 4.58-0.51 6.87-0.72 1.02-0.09 1.02-0.09 2.06-0.19 2.17-0.2 4.34-0.4 6.51-0.59 2.16-0.19 4.33-0.39 6.5-0.59l5.91-0.54c3.17-0.26 3.17-0.26 6.15-1.37 2.93-0.34 5.85-0.64 8.79-0.9 0.88-0.08 1.76-0.17 2.66-0.25 2.87-0.27 5.74-0.53 8.61-0.79l5.91-0.54c15.9-1.45 31.8-2.82 47.8-3.82 0.71-0.05 1.41-0.09 2.14-0.14 1.78-0.11 3.56-0.21 5.34-0.31 2.61-0.15 2.61-0.15 4.47-0.75 3.2-0.7 6.37-0.74 9.63-0.82 1.13-0.03 1.13-0.03 2.29-0.06 2.58-0.07 5.16-0.13 7.75-0.18 0.9-0.02 1.81-0.04 2.74-0.07 18.7-0.41 37.4-0.48 56.2-0.49 2.22 0 4.44-0.01 6.67-0.01 30.3-0.05 60.4 0.63 90.6 2.86 3.76 0.28 7.52 0.54 11.3 0.81 2.42 0.17 4.85 0.35 7.27 0.52 1.66 0.12 1.66 0.12 3.36 0.24 4.88 0.37 9.69 0.76 14.5 1.7-0.14-0.67-0.28-1.33-0.43-2.02-0.68-3.54-1.21-7.09-1.73-10.6-0.22-1.48-0.44-2.97-0.66-4.45-0.34-2.33-0.68-4.65-1.02-6.98-0.33-2.25-0.67-4.51-1-6.76-0.1-0.7-0.21-1.4-0.31-2.12-0.27-3.3-0.27-3.3-1.85-6.02-0.54-2.58-1.04-5.15-1.5-7.75-0.26-1.43-0.52-2.86-0.78-4.3-0.18-1.01-0.18-1.01-0.37-2.05-0.42-2.31-0.88-4.6-1.35-6.9h-2c-0.29-1.07-0.58-2.14-0.88-3.25-0.85-2.84-1.68-5.19-3.12-7.75h-2c-0.26-0.57-0.52-1.15-0.79-1.74-2.59-4.84-6.25-9.26-11.2-11.8-1.02-0.25-1.02-0.25-2.06-0.5v-2c-8.83-4.4-17.6-7.63-27-10.4-10.1-2.98-20-6.25-30-9.59-11.2-3.74-22.4-7.42-33.6-11.1-1.79-0.58-3.58-1.16-5.37-1.75-2.53-0.82-5.06-1.64-7.6-2.47-0.75-0.24-1.5-0.49-2.28-0.74-4.38-1.42-8.77-2.72-13.2-3.98-3.58-1.13-7.13-2.32-10.7-3.5-0.93-0.31-1.87-0.62-2.84-0.93-0.9-0.3-1.8-0.6-2.73-0.91-0.82-0.27-1.63-0.54-2.47-0.82-2.19-0.81-4.19-1.79-6.27-2.84-1.88-0.52-3.78-1-5.69-1.44-4.55-1.09-8.92-2.39-13.3-3.94-2.2-0.74-2.2-0.74-5.48-1.18-0.83-0.15-1.65-0.29-2.5-0.44l-1-2c-2.07-0.74-2.07-0.74-4.62-1.31-5.1-1.31-10.1-2.88-15-4.57-5.93-2-11.9-3.91-17.8-5.81-1.4-0.44-1.4-0.44-2.82-0.9-3.77-1.19-7.53-2.37-11.3-3.45-3.86-1.11-7.67-2.36-11.5-3.65-1.59-0.53-3.17-1.06-4.76-1.59-0.83-0.28-1.66-0.56-2.51-0.84-4.56-1.53-9.11-3.05-13.7-4.57-1.7-0.56-3.4-1.13-5.1-1.7-0.81-0.27-1.63-0.54-2.47-0.82-1.51-0.5-3.03-1.01-4.55-1.52-4.29-1.45-8.6-2.84-12.9-4.21-1.07-0.34-2.14-0.67-3.24-1.02-2.2-0.7-4.4-1.39-6.6-2.08-4.32-1.37-8.53-2.73-12.7-4.53-4.41-1.88-8.92-3.1-13.6-4.37-17.8-4.98-17.8-4.98-25.3-8.08-2.76-1.06-5.48-1.75-8.36-2.42-5.7-1.39-11-3.19-16.4-5.5-6.21-2.61-12.5-4.4-19-6.03-4.34-1.17-8.56-2.58-12.8-4.03-2.16-0.72-4.31-1.44-6.47-2.16-4.69-1.56-9.37-3.12-14.1-4.68-1.66-0.56-1.66-0.56-3.36-1.12-1.93-0.65-3.87-1.29-5.8-1.94-1.18-0.4-1.18-0.4-2.38-0.8-0.66-0.22-1.33-0.44-2.01-0.67-2.93-0.96-5.88-1.82-8.84-2.67-2.42-0.75-4.74-1.58-7.1-2.48-9.26-3.42-17.7-5.06-27.6-5.1-1-0.02-1.99-0.03-3.02-0.04-6.66 0.13-11.5 1.57-17.4 4.66zm-382 180c-7.49 12.2-3.84 34.5-3.84 48.1 0 3.57 0 7.14-0.01 10.7 0 6.97-0.01 13.9-0.01 20.9v17c-0.01 16.1-0.02 32.2-0.02 48.3v2.62 2.63c0.01 14.1 0 28.1-0.02 42.2-0.01 14.5-0.02 29-0.02 43.4 0 8.11 0 16.2-0.01 24.3-0.01 6.9-0.01 13.8-0.01 20.7 0.01 3.51 0.01 7.03 0 10.5-0.01 3.83 0 7.65 0 11.5 0 1.09-0.01 2.18-0.01 3.31-0.47 14-0.47 14 4.65 26.3 4.5 3.72 8.75 3.3 14.3 3.29h2.74 9.21 6.65 18.4 17.9c12.4 0.01 24.8 0.01 37.2 0h37.7 2.4 9.68c30.1 0.01 60.1 0.01 90.2 0.01h2.71 2.7c27.2-0.01 54.4-0.01 81.6-0.01h5.46c7.3 0 14.6 0 21.9 0.01h61.3 2.82c29.7 0 59.3 0 89-0.01h2.91 46.9 186 46.8 2.92c29.6 0.01 59.2 0.01 88.9 0.01h2.82c20.4 0 40.8 0 61.2-0.01h21.9 5.45c27.2 0 54.4 0 81.5 0.01h2.71 2.69c30 0 60 0 90-0.01h9.65 2.39 37.6c12.3 0.01 24.6 0 36.9 0h19.8 17.9 6.49 8.74 2.57c3.3-0.01 5.98-0.08 9.13-1.13 6.87-11.2 4.15-29 4.13-41.8 0-2.08 0-4.15 0.01-6.23 0-4.32 0-8.64-0.01-13-0.01-5.54 0-11.1 0-16.6 0.01-4.27 0.01-8.54 0-12.8 0-2.04 0-4.08 0.01-6.12 0-2.85-0.01-5.69-0.01-8.54 0-0.83 0-1.67 0.01-2.54-0.02-3.94-0.16-7.58-1.14-11.4h-2c-0.23-0.6-0.45-1.2-0.69-1.81-1.69-2.83-3.4-3.67-6.31-5.19-0.89-0.49-1.77-0.99-2.69-1.5-2.61-1.18-4.89-1.99-7.62-2.75-4.87-1.39-9.47-3.23-14.1-5.19-7.7-3.22-15.4-6.2-23.4-8.83-7.8-2.59-15.6-5.29-23.3-7.97-2.1-0.72-4.2-1.44-6.3-2.17-0.67-0.23-1.34-0.46-2.02-0.69-3.59-1.24-7.17-2.45-10.8-3.64-2.73-0.91-5.4-1.86-8.08-2.88-2.63-0.98-5-1.73-7.69-2.38-2.75-0.87-5.5-1.74-8.25-2.62-8.84-2.83-17.7-5.45-26.6-8.02-4.74-1.36-9.42-2.8-14.1-4.36-2.47-0.68-4.95-1.35-7.44-2-3.56-0.94-7.12-1.87-10.7-2.91-5.92-1.7-11.9-3.11-17.9-4.59-13.9-3.43-13.9-3.43-18-4.62-3.2-0.93-6.42-1.7-9.66-2.44-1.09-0.25-2.18-0.5-3.29-0.76-1.86-0.41-3.72-0.8-5.58-1.18-3.04-0.61-6.05-1.3-9.07-2-1.12-0.26-2.23-0.52-3.38-0.78-1.68-0.39-3.35-0.79-5.02-1.22-3.37-0.83-6.79-1.44-10.2-2.09-1.61-0.31-3.23-0.63-4.84-0.94-2.54-0.49-5.08-0.97-7.61-1.46-2.46-0.47-4.91-0.94-7.36-1.42-0.76-0.14-1.52-0.29-2.3-0.44-2.99-0.57-5.84-1.19-8.73-2.15-2.02-0.32-4.04-0.61-6.06-0.88-5.85-0.81-11.7-1.71-17.5-2.68-0.76-0.13-1.53-0.26-2.31-0.39-2.81-0.47-5.62-0.94-8.41-1.52-3.38-0.66-6.79-1.14-10.2-1.62-0.73-0.1-1.45-0.2-2.2-0.3-2.36-0.33-4.71-0.66-7.07-0.99-0.8-0.11-1.61-0.22-2.43-0.33-13.9-1.93-27.8-3.72-41.8-5.29-0.66-0.08-1.33-0.15-2.01-0.23-5.22-0.6-10.4-1.08-15.6-1.49-0.8-0.06-1.59-0.12-2.41-0.19-1.68-0.13-3.35-0.26-5.02-0.39-2.51-0.2-5.02-0.4-7.52-0.59-8.64-0.68-17.3-1.32-25.9-1.85-2.59-0.19-5.13-0.45-7.7-0.75-25.4-2.89-51.6-1.67-77.1-1.64-5.77 0.01-11.5 0-17.3 0-4.47-0.01-8.93-0.01-13.4 0-2.13 0-4.26 0-6.39-0.01-2.94 0-5.88 0.01-8.82 0.01-0.88 0-1.76 0-2.66-0.01-3.86-0.36-3.86-0.36-7.1 1.14-1.85 0.18-3.7 0.3-5.55 0.39-1.82 0.1-1.82 0.1-3.68 0.21-0.66 0.03-1.33 0.07-2.01 0.1-16.5 0.89-33 2.34-49.5 3.89-1.8 0.17-3.6 0.34-5.39 0.51-0.87 0.08-1.73 0.16-2.62 0.25-4.89 0.45-9.78 0.83-14.7 1.15-5.5 0.37-10.9 1.08-16.3 1.9-10 1.46-20.1 2.5-30.1 3.66-3.46 0.41-6.92 0.81-10.4 1.22-2.14 0.25-4.28 0.49-6.42 0.74-4.21 0.49-8.43 0.99-12.6 1.52-3.32 0.41-6.63 0.79-9.95 1.14-1.15 0.13-2.29 0.25-3.47 0.37-2.48 0.27-4.96 0.53-7.44 0.79-5.83 0.62-11.7 1.25-17.5 1.97-27.6 3.29-55.2 3.51-83 3.45-5.16-0.01-10.3 0-15.5 0.01-50.9 0.09-50.9 0.09-71.5-3.82-2.69-0.5-5.39-0.88-8.11-1.2-0.96-0.11-1.91-0.22-2.9-0.34-1.47-0.17-1.47-0.17-2.97-0.35-7.63-0.92-15.2-1.92-22.8-3.18-0.74-0.13-1.49-0.25-2.26-0.38-5.1-0.87-5.1-0.87-7.36-2-3.37-0.56-6.75-1.03-10.1-1.5-2.87-0.5-2.87-0.5-3.87-1.5-1.85-0.26-3.71-0.48-5.56-0.69-11-1.5-21.7-4.5-32.4-7.31-1.57-0.4-3.14-0.81-4.7-1.21-9.55-2.49-9.55-2.49-12.8-3.81-4.03-1.57-8.24-2.3-12.5-3.2-2.69-0.68-4.62-1.54-7.06-2.78-2.22-0.68-4.45-1.32-6.69-1.94-8.6-2.36-17-5.25-25.3-8.37-4.86-1.81-9.72-3.61-14.6-5.3-0.74-0.26-1.48-0.51-2.24-0.78-1.36-0.47-2.73-0.93-4.09-1.39-4.82-1.66-9.38-3.72-14-5.85-5.04-2.27-10.2-4.29-15.3-6.36-10.3-4.18-20.3-8.59-30-14-3.69-2.05-7.48-3.84-11.3-5.58-7.64-3.49-15-7.42-22.4-11.4-0.94-0.51-1.89-1.03-2.86-1.56-1.75-0.96-3.51-1.92-5.26-2.88-2.17-1.18-4.35-2.34-6.54-3.5-6.34-3.34-12.6-6.74-18.7-10.5-3.35-2.03-6.73-4.01-10.1-5.97-0.61-0.35-1.22-0.71-1.86-1.08-3.11-1.93-3.11-1.93-6.64-2.54v-2c-0.64-0.35-1.28-0.7-1.93-1.06-0.83-0.45-1.66-0.91-2.51-1.38-1.23-0.68-1.23-0.68-2.49-1.37-2.07-1.19-2.07-1.19-3.07-2.19-3.96-0.53-5.39-0.59-8.31 2.25zm-58.7-1.25v7h1v-7h-1zm964 15 1 2zm-203 36v1h9v-1h-9z" fill="#FBFBFB"/>
<path transform="translate(572,1332)" d="m0 0h6v1h-6v-1z" fill="#000302"/>
<path transform="translate(865,1307)" d="m0 0h6v1h-6v-1z" fill="#000302"/>
<path transform="translate(1186,5)" d="m0 0h6v1h-6v-1z" fill="#FCFCFC"/>
<path transform="translate(1198,61)" d="m0 0c3 1 3 1 3 1z" fill="#000302"/>
<path transform="translate(1176,62)" d="m0 0 2 1z" fill="#000302"/>
<path transform="translate(1193,5)" d="m0 0 2 1z" fill="#FCFCFC"/>
</svg>
