<svg width="72" height="48" viewBox="0 0 72 48" fill="none" xmlns="http://www.w3.org/2000/svg">
<g id="Visa" clip-path="url(#clip0_2_900)">
<path id="Vector" d="M63.5222 0H8.47784C3.79566 0 0 3.81052 0 8.51103V39.489C0 44.1895 3.79566 48 8.47784 48H63.5222C68.2043 48 72 44.1895 72 39.489V8.51103C72 3.81052 68.2043 0 63.5222 0Z" fill="white"/>
<g id="Group 41">
<path id="Vector_2" d="M28.2988 31.758L30.925 16.2781H35.1292L32.491 31.758H28.2988Z" fill="#005098"/>
<path id="Vector_3" d="M47.7537 16.6531C46.9225 16.3386 45.6094 16 43.9831 16C39.8271 16 36.8998 18.1043 36.8757 21.1156C36.8516 23.3409 38.9597 24.5865 40.5619 25.3243C42.2002 26.0862 42.7544 26.5699 42.7423 27.2472C42.7423 28.2872 41.4293 28.7589 40.2246 28.7589C38.5381 28.7589 37.6466 28.5291 36.2613 27.9486L35.7192 27.7067L35.1289 31.1776C36.1047 31.613 37.9237 31.9879 39.815 32C44.2361 32 47.1032 29.9199 47.1393 26.7029C47.1514 24.9373 46.0311 23.607 43.6097 22.4943C42.14 21.7808 41.2365 21.2971 41.2486 20.5714C41.2486 19.9305 42.0075 19.2411 43.6579 19.2411C45.0312 19.2169 46.031 19.5193 46.802 19.8337L47.1755 20.0151L47.7417 16.6531H47.7537Z" fill="#005098"/>
<path id="Vector_4" d="M58.5356 16.2902H55.283C54.2711 16.2902 53.5242 16.5683 53.0785 17.5721L46.8384 31.7701H51.2595C51.2595 31.7701 51.9823 29.8593 52.1389 29.4481C52.6207 29.4481 56.9093 29.4481 57.5237 29.4481C57.6441 29.9924 58.0296 31.7701 58.0296 31.7701H61.9327L58.5235 16.2902H58.5356ZM53.3556 26.2796C53.7049 25.3846 55.03 21.95 55.03 21.95C55.006 21.9863 55.3794 21.0551 55.5842 20.4746L55.8733 21.8049C55.8733 21.8049 56.6804 25.5056 56.8491 26.2796H53.3556Z" fill="#005098"/>
<path id="Vector_5" d="M24.7689 16.2902L20.649 26.848L20.2033 24.7074C19.4443 22.2282 17.0471 19.5555 14.3848 18.2131L18.1433 31.758H22.5885L29.2141 16.2902H24.7569H24.7689Z" fill="#005098"/>
<path id="Vector_6" d="M16.8304 16.2781H10.0482L10 16.6046C15.2764 17.8865 18.7699 20.9825 20.2155 24.7074L18.7458 17.5842C18.4928 16.6046 17.758 16.3144 16.8425 16.2781H16.8304Z" fill="#F7A600"/>
</g>
</g>
<defs>
<clipPath id="clip0_2_900">
<rect width="72" height="48" fill="white"/>
</clipPath>
</defs>
</svg>
